<?xml version="1.0" encoding="UTF-8"?>
<svg version="1.1" xmlns="http://www.w3.org/2000/svg" width="812" height="240">
<path d="M0 0 C3 1 3 1 4.54638672 3.76879883 C5.10182119 4.99327889 5.64544542 6.22315757 6.1796875 7.45703125 C6.47432892 8.11523361 6.76897034 8.77343597 7.07254028 9.45158386 C8.01667534 11.56761255 8.94579622 13.68987871 9.875 15.8125 C10.49255033 17.20028813 11.11103037 18.58766295 11.73046875 19.97460938 C14.9428869 27.19896707 18.02347313 34.42579929 20.76611328 41.84643555 C21.80343517 44.18464511 21.80343517 44.18464511 24.14404297 44.81567383 C24.75650879 44.87650146 25.36897461 44.9373291 26 45 C30.16574754 36.86557051 33.99946877 28.63788158 37.625 20.25 C40.58929764 13.40741295 43.58771881 6.63232119 47 0 C48.84277344 0.19165039 48.84277344 0.19165039 51 1 C52.33691406 3.12280273 52.33691406 3.12280273 53.515625 5.93359375 C53.95817627 6.96726074 54.40072754 8.00092773 54.85668945 9.06591797 C55.31648193 10.17854004 55.77627441 11.29116211 56.25 12.4375 C56.73235107 13.5630127 57.21470215 14.68852539 57.71166992 15.84814453 C59.94674135 21.06714198 62.12738012 26.30726631 64.28515625 31.55859375 C64.80384277 32.79041382 64.80384277 32.79041382 65.33300781 34.04711914 C65.96889038 35.55837045 66.58781904 37.07690973 67.18652344 38.60327148 C68.73511598 42.26783638 69.78929255 43.87107863 73.23046875 45.9765625 C74.14441406 46.31429687 75.05835938 46.65203125 76 47 C77.64830874 46.00889419 77.64830874 46.00889419 79 44 C79.27389023 41.22339086 79.37285104 38.67606956 79.328125 35.90234375 C79.32531525 34.71723961 79.32531525 34.71723961 79.32244873 33.50819397 C79.31573107 31.83964817 79.30182214 30.17111804 79.28125 28.50268555 C79.25007552 25.9436994 79.24027678 23.38532915 79.234375 20.82617188 C79.22520561 19.20572163 79.21483004 17.58527766 79.203125 15.96484375 C79.19887512 15.19712143 79.19462524 14.42939911 79.19024658 13.63841248 C79.21489169 9.68983313 79.21489169 9.68983313 78 6 C76.35636866 5.27840576 74.68949614 4.60648579 73 4 C73 3.01 73 2.02 73 1 C92.54190803 0.32409554 112.07066026 -0.10590884 131.625 -0.125 C132.98744339 -0.12874634 132.98744339 -0.12874634 134.37741089 -0.13256836 C136.95216788 -0.13840886 139.52680448 -0.13700282 142.1015625 -0.1328125 C142.87388718 -0.13479645 143.64621185 -0.1367804 144.44194031 -0.13882446 C149.76933164 -0.11533418 149.76933164 -0.11533418 152 1 C152 1.99 152 2.98 152 4 C151.34 4.33 150.68 4.66 150 5 C150.53894425 9.59808129 151.76571528 12.86784369 154.0625 16.875 C154.61035156 17.84179688 155.15820312 18.80859375 155.72265625 19.8046875 C156.14417969 20.52914062 156.56570313 21.25359375 157 22 C158.17441535 19.89983377 159.33964012 17.79541245 160.5 15.6875 C161.00080078 14.79514648 161.00080078 14.79514648 161.51171875 13.88476562 C163.06825114 11.04171156 164 9.29339012 164 6 C162.02 5.01 160.04 4.02 158 3 C158.66 2.01 159.32 1.02 160 0 C162.75141192 -0.24905022 165.25669812 -0.32673572 168 -0.25 C169.10601562 -0.24226563 169.10601562 -0.24226563 170.234375 -0.234375 C175.69055451 -0.15472274 175.69055451 -0.15472274 178 1 C177.67 1.99 177.34 2.98 177 4 C176.28457031 4.35578125 175.56914062 4.7115625 174.83203125 5.078125 C170.44930293 8.05233512 168.30414251 12.21796402 165.6875 16.75 C165.14714111 17.68561768 164.60678223 18.62123535 164.05004883 19.58520508 C159.70283385 27.59561113 158.2889015 33.98135299 160 43 C160.33 43.66 160.66 44.32 161 45 C162.89533342 45.46523063 162.89533342 45.46523063 165.0625 45.625 C167.0115625 45.810625 167.0115625 45.810625 169 46 C169.36222656 44.81535156 169.72445312 43.63070312 170.09765625 42.41015625 C172.16360849 36.21714635 174.86671579 30.30880061 177.56079102 24.37036133 C178.43648495 22.43973785 179.30568386 20.50629403 180.17382812 18.57226562 C182.9907729 12.31516887 185.86639667 6.10552197 189 0 C190.87231445 0.26164246 190.87231445 0.26164246 193 1 C194.13745117 2.64985657 194.13745117 2.64985657 195.04296875 4.8137207 C195.39012939 5.62158524 195.73729004 6.42944977 196.0949707 7.26179504 C196.45550537 8.14091049 196.81604004 9.02002594 197.1875 9.92578125 C197.57188232 10.82491745 197.95626465 11.72405365 198.35229492 12.6504364 C199.58250848 15.53196186 200.79271279 18.42130164 202 21.3125 C203.20908291 24.19212766 204.42252359 27.06961122 205.64770508 29.94242859 C206.40999323 31.73124335 207.16283331 33.52412119 207.9050293 35.32136536 C210.36507298 41.11305123 212.68811129 44.45874086 218 48 C218 48.66 218 49.32 218 50 C215.02129623 50.99290126 213.40817115 51.05524548 210.33203125 50.87890625 C208.99301758 50.80639648 208.99301758 50.80639648 207.62695312 50.73242188 C206.69818359 50.67634766 205.76941406 50.62027344 204.8125 50.5625 C203.87212891 50.51029297 202.93175781 50.45808594 201.96289062 50.40429688 C199.64158499 50.27468082 197.32071591 50.13971819 195 50 C195 49.01 195 48.02 195 47 C195.99 46.67 196.98 46.34 198 46 C197.88541307 44.56163249 197.75790884 43.12429034 197.625 41.6875 C197.52058594 40.48673828 197.52058594 40.48673828 197.4140625 39.26171875 C197.10435574 36.72775559 197.10435574 36.72775559 195 34 C192.2114711 33.77892213 189.65346819 33.71892465 186.875 33.8125 C186.12089844 33.82603516 185.36679687 33.83957031 184.58984375 33.85351562 C182.72625873 33.88890015 180.86304022 33.94270833 179 34 C176.91511291 39.46313669 176.91511291 39.46313669 178 45 C180.47636012 46.37466625 180.47636012 46.37466625 183 47 C183 47.99 183 48.98 183 50 C169.47 50 155.94 50 142 50 C142 49.01 142 48.02 142 47 C143.98 46.01 145.96 45.02 148 44 C150.3310284 30.14333118 144.38817405 20.64272328 137.44213867 9.00854492 C135.99241466 6.74046336 135.99241466 6.74046336 133 5 C131.02 5 129.04 5 127 5 C127.33 17.87 127.66 30.74 128 44 C130.31 44.99 132.62 45.98 135 47 C135 47.99 135 48.98 135 50 C127.41 50 119.82 50 112 50 C112 49.01 112 48.02 112 47 C113.32 46.67 114.64 46.34 116 46 C116 32.8 116 19.6 116 6 C114.35 6 112.7 6 111 6 C111 7.98 111 9.96 111 12 C109.68 12.33 108.36 12.66 107 13 C106.79375 12.21625 106.5875 11.4325 106.375 10.625 C105.21478095 7.78757712 105.21478095 7.78757712 102.375 6.6875 C98.43670677 5.88525508 95.01214566 5.86165015 91 6 C90.67 10.95 90.34 15.9 90 21 C93.3 21 96.6 21 100 21 C100.99 18.525 100.99 18.525 102 16 C103.32 16 104.64 16 106 16 C106.33 21.28 106.66 26.56 107 32 C105.68 32.33 104.36 32.66 103 33 C102.5978125 31.7934375 102.5978125 31.7934375 102.1875 30.5625 C101.5996875 29.2940625 101.5996875 29.2940625 101 28 C97.52674819 26.8422494 94.63932552 26.93133348 91 27 C90.97301578 29.43757413 90.95316901 31.87484915 90.9375 34.3125 C90.92493164 35.34793945 90.92493164 35.34793945 90.91210938 36.40429688 C90.89692094 39.5483025 90.99806673 41.99420019 92 45 C95.00847418 46.22520264 95.00847418 46.22520264 98 47 C98 47.99 98 48.98 98 50 C82.90941216 50.82159867 68.07896178 51.09512013 53 50 C53.66 48.68 54.32 47.36 55 46 C55.66 46 56.32 46 57 46 C56.71640113 44.5608866 56.42278601 43.12374482 56.125 41.6875 C55.96257812 40.88699219 55.80015625 40.08648437 55.6328125 39.26171875 C55.05521001 36.74698882 55.05521001 36.74698882 53 34 C50.2114711 33.77892213 47.65346819 33.71892465 44.875 33.8125 C44.12089844 33.82603516 43.36679687 33.83957031 42.58984375 33.85351562 C40.72625873 33.88890015 38.86304022 33.94270833 37 34 C36.01 37.63 35.02 41.26 34 45 C36.31 45.66 38.62 46.32 41 47 C41 47.99 41 48.98 41 50 C29.20567437 51.0574223 17.80088222 50.83375798 6 50 C6 49.01 6 48.02 6 47 C6.99 46.01 7.98 45.02 9 44 C8.01 40.7 7.02 37.4 6 34 C0.39 34 -5.22 34 -11 34 C-11.66 37.3 -12.32 40.6 -13 44 C-11.02 44.99 -9.04 45.98 -7 47 C-7 47.99 -7 48.98 -7 50 C-12.94 50 -18.88 50 -25 50 C-25 49.01 -25 48.02 -25 47 C-24.38125 46.95875 -23.7625 46.9175 -23.125 46.875 C-22.42375 46.58625 -21.7225 46.2975 -21 46 C-20.28353951 44.01729256 -19.62649095 42.01294648 -19 40 C-17.2804728 35.88840393 -15.45105303 31.82642439 -13.62451172 27.76147461 C-12.76120851 25.83747977 -11.90573529 23.9101385 -11.05078125 21.98242188 C-7.6946893 14.46531276 -4.08080984 7.15624305 0 0 Z M45 14 C44.16235732 15.95649397 43.33000941 17.91525556 42.5 19.875 C42.0359375 20.96554688 41.571875 22.05609375 41.09375 23.1796875 C39.87947544 25.80661929 39.87947544 25.80661929 40 28 C43.96 28 47.92 28 52 28 C50.02 23.38 48.04 18.76 46 14 C45.67 14 45.34 14 45 14 Z M-3 15 C-4.65 19.29 -6.3 23.58 -8 28 C-4.04 28 -0.08 28 4 28 C3.54625 26.5975 3.0925 25.195 2.625 23.75 C2.36976563 22.96109375 2.11453125 22.1721875 1.8515625 21.359375 C1.04826333 19.13372042 0.10288338 17.09068328 -1 15 C-1.66 15 -2.32 15 -3 15 Z M187 15 C186.16209211 16.78953185 185.32980604 18.58169695 184.5 20.375 C184.0359375 21.37273437 183.571875 22.37046875 183.09375 23.3984375 C181.8708127 25.83692626 181.8708127 25.83692626 182 28 C185.96 28 189.92 28 194 28 C193.21658881 26.01755108 192.42302514 24.03911141 191.625 22.0625 C191.18414062 20.96035156 190.74328125 19.85820313 190.2890625 18.72265625 C189.28958568 15.88769814 189.28958568 15.88769814 187 15 Z " fill="#000000" transform="translate(291,50)"/>
<path d="M0 0 C8.0587751 0.115492 15.86758208 3.00808173 21.6953125 8.640625 C27.58880676 15.53247075 28.18748647 23.5294785 29.125 32.3125 C32.56293339 32.13120185 32.56293339 32.13120185 36.125 31.3125 C37.47425651 29.54152847 37.47425651 29.54152847 38.125 27.3125 C43.73761202 19.04128229 50.72739081 10.41986235 60.71875 7.7109375 C65.15790204 6.9758831 69.67052311 6.56765304 74.125 7.3125 C75.9453125 8.8359375 75.9453125 8.8359375 77.125 10.3125 C75.76875813 16.0900358 72.96833215 18.9880268 68.83203125 22.9609375 C68.20777756 23.57715973 67.58352386 24.19338196 66.94035339 24.82827759 C64.94867625 26.7910687 62.94386799 28.73973851 60.9375 30.6875 C58.31485529 33.25359603 55.69756947 35.82510013 53.08203125 38.3984375 C52.44962524 39.01925201 51.81721924 39.64006653 51.16564941 40.2796936 C47.63165878 43.76563034 44.28379885 47.32115391 41.07788086 51.11279297 C36.43341806 56.34427313 31.41926872 61.24373322 26.48144531 66.19628906 C24.49080615 68.19673917 22.51108478 70.20761349 20.53125 72.21875 C19.25847087 73.49805118 17.98505569 74.77671995 16.7109375 76.0546875 C16.12436371 76.65360809 15.53778992 77.25252869 14.93344116 77.86959839 C11.90809976 80.87865777 9.40419428 83.31052279 5.125 84.3125 C2.05653656 83.95749169 -0.73161209 82.81123418 -3.625 81.75 C-4.40488281 81.49669922 -5.18476563 81.24339844 -5.98828125 80.98242188 C-8.10140393 80.2308852 -9.97796954 79.51004402 -11.875 78.3125 C-12.890625 75.59765625 -12.890625 75.59765625 -12.875 73.3125 C-8.915 72.3225 -8.915 72.3225 -4.875 71.3125 C-4.87722061 70.43775528 -4.87944122 69.56301056 -4.88172913 68.66175842 C-4.90172978 60.43574654 -4.91697298 52.20974277 -4.92681217 43.9837122 C-4.93204056 39.75418629 -4.9391374 35.5246804 -4.95043945 31.29516602 C-4.96126991 27.21681457 -4.96727717 23.13848243 -4.96987724 19.06011772 C-4.97173121 17.50072361 -4.97535127 15.9413306 -4.98073006 14.38194466 C-4.98794262 12.20520838 -4.98899085 10.02855286 -4.98852539 7.85180664 C-4.990746 6.61048477 -4.99296661 5.3691629 -4.99525452 4.09022522 C-4.8093623 -0.20364673 -4.49401669 0.3624207 0 0 Z " fill="#68CAD1" transform="translate(190.875,54.6875)"/>
<path d="M0 0 C0.66 0 1.32 0 2 0 C2.07466101 4.69560343 2.12884101 9.39085443 2.16479492 14.08691406 C2.17979745 15.68137641 2.20020621 17.27579808 2.22631836 18.87011719 C2.26308134 21.17393077 2.27981155 23.4771946 2.29296875 25.78125 C2.30845261 26.48366821 2.32393646 27.18608643 2.33988953 27.90979004 C2.34203494 34.3490726 0.87024952 39.77591949 -3.3125 44.75 C-12.6226396 52.54453548 -20.59288379 53.30617891 -32.33984375 53.23046875 C-33.50254288 53.23001053 -34.665242 53.22955231 -35.86317444 53.2290802 C-38.30633574 53.22607192 -40.74949536 53.2182286 -43.19262695 53.20581055 C-46.94944976 53.18744157 -50.7060274 53.18530182 -54.46289062 53.18554688 C-56.83854382 53.18063546 -59.21419533 53.1748088 -61.58984375 53.16796875 C-62.71889633 53.16685593 -63.84794891 53.1657431 -65.01121521 53.16459656 C-66.56401939 53.15502678 -66.56401939 53.15502678 -68.14819336 53.14526367 C-69.52097694 53.13954597 -69.52097694 53.13954597 -70.92149353 53.13371277 C-73 53 -73 53 -74 52 C-74.08868299 49.04294679 -74.11520296 46.10934944 -74.09765625 43.15234375 C-74.0962413 42.2659169 -74.09482635 41.37949005 -74.09336853 40.46620178 C-74.08775215 37.62326746 -74.07519691 34.78041069 -74.0625 31.9375 C-74.05748711 30.01497509 -74.05292384 28.09244896 -74.04882812 26.16992188 C-74.03777741 21.44658451 -74.02050183 16.72330542 -74 12 C-73.43418213 11.99413376 -72.86836426 11.98826752 -72.28540039 11.98222351 C-66.31366011 11.91751969 -60.34242116 11.83291936 -54.37109375 11.73754883 C-52.15241165 11.70460924 -49.93365197 11.67648466 -47.71484375 11.65356445 C-24.44468238 11.79731691 -24.44468238 11.79731691 -3 4 C-2.34 4 -1.68 4 -1 4 C-0.67 2.68 -0.34 1.36 0 0 Z " fill="#B25773" transform="translate(217,130)"/>
<path d="M0 0 C5.67830078 -0.02464705 11.35657069 -0.04283462 17.03491211 -0.05493164 C18.96818585 -0.05997256 20.90145576 -0.06680519 22.8347168 -0.07543945 C25.60726872 -0.08751565 28.37977041 -0.09323057 31.15234375 -0.09765625 C32.45702858 -0.10539818 32.45702858 -0.10539818 33.78807068 -0.11329651 C35.85905814 -0.11349185 37.92994324 -0.06208168 40 0 C41 1 41 1 41.09765625 2.78051758 C41.08605469 3.56064209 41.07445312 4.3407666 41.0625 5.14453125 C41.05387939 6.03551514 41.04525879 6.92649902 41.03637695 7.84448242 C41.02437256 8.82392822 41.01236816 9.80337402 41 10.8125 C40.95486769 20.10901576 41.04849691 29.39446687 41.3125 38.6875 C41.34633789 40.4032019 41.34633789 40.4032019 41.38085938 42.15356445 C41.78086973 54.65843364 43.82111131 66.98736604 53 76 C48.0379729 76.14942403 43.07728266 76.25771383 38.11352539 76.32958984 C36.42872274 76.35958059 34.7440738 76.4003887 33.05981445 76.45263672 C16.16333657 76.96328583 16.16333657 76.96328583 9.59692383 71.58007812 C8.80644653 70.79793945 8.80644653 70.79793945 8 70 C7.24529419 69.2874707 7.24529419 69.2874707 6.4753418 68.56054688 C-0.51403623 61.1301468 -0.41820641 52.54236508 -0.29296875 42.96875 C-0.28872391 41.73709106 -0.28447906 40.50543213 -0.28010559 39.2364502 C-0.26338749 35.32407256 -0.22574662 31.41222051 -0.1875 27.5 C-0.17074452 24.83854921 -0.15875755 22.17710335 -0.14648438 19.515625 C-0.11350636 13.01023902 -0.06337498 6.50515708 0 0 Z " fill="#8ECCEE" transform="translate(56,141)"/>
<path d="M0 0 C1.20804794 0.00424484 2.41609589 0.00848969 3.66075134 0.01286316 C7.49151587 0.02955781 11.32174017 0.06719401 15.15234375 0.10546875 C17.76106007 0.12052744 20.3697847 0.13421377 22.97851562 0.14648438 C29.34933023 0.17686982 35.71898747 0.23561192 42.08984375 0.29296875 C42.08984375 13.82296875 42.08984375 27.35296875 42.08984375 41.29296875 C38.59390625 41.31875 35.09796875 41.34453125 31.49609375 41.37109375 C28.05705191 41.40966113 24.61815264 41.45477381 21.17919922 41.50048828 C18.8150123 41.52846873 16.45073581 41.54979546 14.08642578 41.56396484 C-11.25247153 40.95774078 -11.25247153 40.95774078 -32.91015625 52.29296875 C-33.00936174 47.13352002 -33.08178271 41.97463186 -33.12988281 36.81445312 C-33.14994335 35.06077396 -33.17719876 33.30716122 -33.21191406 31.55371094 C-33.26067927 29.02652557 -33.28318017 26.50022784 -33.30078125 23.97265625 C-33.32142639 23.19429413 -33.34207153 22.41593201 -33.36334229 21.61398315 C-33.36584292 15.48651019 -31.42073915 12.09675841 -27.3046875 7.5 C-19.12437 0.28920161 -10.5619854 -0.14139666 0 0 Z " fill="#ABD6B0" transform="translate(53.91015625,52.70703125)"/>
<path d="M0 0 C4.94366885 -0.17455916 9.88550079 -0.30076327 14.83154297 -0.38452148 C16.50959562 -0.4194742 18.18743903 -0.46705627 19.86474609 -0.52807617 C36.66526275 -1.12344886 36.66526275 -1.12344886 44.22314453 5.18505859 C49.78322685 10.86431827 52.26289128 16.90102702 52.22705078 24.82177734 C52.22689972 25.94248627 52.22674866 27.06319519 52.22659302 28.21786499 C52.21627045 29.41182892 52.20594788 30.60579285 52.1953125 31.8359375 C52.1924826 33.07042633 52.18965271 34.30491516 52.18673706 35.57681274 C52.17556522 39.50964149 52.15046564 43.44224037 52.125 47.375 C52.11383825 50.04556959 52.10584119 52.71613701 52.09765625 55.38671875 C52.07733953 61.92463843 52.03818393 68.46206267 52 75 C38.8 75 25.6 75 12 75 C11.5625 57.0625 11.5625 57.0625 11.43188477 51.51977539 C11.23624588 43.56549629 10.98844844 35.61433016 10.578125 27.66796875 C10.54783707 26.99121597 10.51754913 26.3144632 10.48634338 25.61720276 C10.02595117 17.50537582 8.01982805 8.81916712 2 3 C1.34 2.67 0.68 2.34 0 2 C0 1.34 0 0.68 0 0 Z " fill="#F5B673" transform="translate(131,19)"/>
<path d="M0 0 C1.38329657 2.37889097 2.48758585 4.56205664 3.55078125 7.07421875 C3.85445114 7.7580513 4.15812103 8.44188385 4.47099304 9.1464386 C5.43262727 11.32076325 6.37271765 13.50365461 7.3125 15.6875 C7.96279036 17.16793449 8.61446841 18.64776026 9.26757812 20.12695312 C10.86120954 23.7444496 12.43559217 27.36977564 14 31 C16.07488334 27.887675 17.59025527 24.78070373 19.1875 21.3984375 C19.80967119 20.09103891 20.43207394 18.78375049 21.0546875 17.4765625 C22.03161479 15.41919898 23.00660673 13.36098133 23.97753906 11.30078125 C24.91706675 9.30985477 25.86418601 7.3226906 26.8125 5.3359375 C27.37582031 4.14532715 27.93914062 2.9547168 28.51953125 1.72802734 C30 -1 30 -1 32 -2 C33.66055707 -2.25244955 35.32898975 -2.45498442 37 -2.625 C37.886875 -2.72039062 38.77375 -2.81578125 39.6875 -2.9140625 C42 -3 42 -3 44 -2 C44 -1.01 44 -0.02 44 1 C42.35 1.33 40.7 1.66 39 2 C38.77352372 22.02562156 38.77352372 22.02562156 40 42 C41.8871875 42.5259375 41.8871875 42.5259375 43.8125 43.0625 C44.52019531 43.25972656 45.22789062 43.45695312 45.95703125 43.66015625 C48.19244159 44.19563817 48.19244159 44.19563817 51 43 C51 29.8 51 16.6 51 3 C49.02 2.34 47.04 1.68 45 1 C45 0.01 45 -0.98 45 -2 C50.95283621 -3.41047466 56.95143842 -3.18601868 63.02978516 -3.18530273 C65.12552873 -3.18750055 67.22075483 -3.20571858 69.31640625 -3.22460938 C70.65103987 -3.22754169 71.98567599 -3.22952757 73.3203125 -3.23046875 C74.52961426 -3.23457764 75.73891602 -3.23868652 76.98486328 -3.24291992 C80 -3 80 -3 83 -1 C83.29296875 1.6015625 83.29296875 1.6015625 83.1875 4.625 C83.14689453 6.12933594 83.14689453 6.12933594 83.10546875 7.6640625 C83.07066406 8.43492188 83.03585937 9.20578125 83 10 C81.68 10 80.36 10 79 10 C78.7525 9.030625 78.505 8.06125 78.25 7.0625 C77.8375 6.051875 77.425 5.04125 77 4 C73.96541673 2.80784229 70.97794562 2.89502703 67.75 2.9375 C66.1825 2.958125 64.615 2.97875 63 3 C62.67 7.95 62.34 12.9 62 18 C67.0558054 17.82058469 67.0558054 17.82058469 72 17 C73.99083177 14.5748212 73.99083177 14.5748212 75 12 C75.99 12 76.98 12 78 12 C78.77040851 18.06696699 79.09706112 23.88514973 79 30 C77.0703125 29.625 77.0703125 29.625 75 29 C73.875 27 73.875 27 73 25 C70.18010841 23.40371521 70.18010841 23.40371521 63 24 C63 29.94 63 35.88 63 42 C75.46718745 40.52063716 75.46718745 40.52063716 85 33 C85.66 33.66 86.32 34.32 87 35 C86.78387419 39.86283076 85.3679057 42.53586842 82 46 C79.12735437 47.73777097 77.09623822 48.23754366 73.75732422 48.13525391 C72.51485428 48.10499619 72.51485428 48.10499619 71.24728394 48.0741272 C70.35872711 48.04193085 69.47017029 48.0097345 68.5546875 47.9765625 C67.62963409 47.95153656 66.70458069 47.92651062 65.75149536 47.90072632 C62.79228317 47.81866871 59.83374842 47.7222449 56.875 47.625 C53.93765038 47.53803899 51.00022957 47.45401792 48.06277466 47.37069702 C46.23723142 47.31786145 44.41176173 47.26239154 42.58639526 47.20376587 C36.7222598 47.02050946 30.8668716 46.96737415 25 47 C24.67 46.01 24.34 45.02 24 44 C25.98 43.505 25.98 43.505 28 43 C28.11319383 36.83722499 27.95812407 30.74984004 27.49609375 24.6015625 C27.40384521 23.35971191 27.31159668 22.11786133 27.21655273 20.83837891 C27.14509033 19.90171387 27.07362793 18.96504883 27 18 C26.62713867 18.84296631 26.25427734 19.68593262 25.87011719 20.55444336 C24.48024762 23.67776758 23.07748565 26.79459472 21.66552734 29.90795898 C21.05705309 31.25682471 20.45382103 32.60806795 19.85595703 33.96166992 C18.99577071 35.9067181 18.11711011 37.84244432 17.234375 39.77734375 C16.71069336 40.94515381 16.18701172 42.11296387 15.64746094 43.31616211 C14 46 14 46 11.79785156 46.88891602 C10.90791504 46.94390259 10.90791504 46.94390259 10 47 C5.48790764 38.0765816 1.03363583 29.15325054 -3 20 C-5.10700924 31.36143002 -5.10700924 31.36143002 -2 42 C0.0335948 43.26804566 0.0335948 43.26804566 2 44 C2 44.99 2 45.98 2 47 C-3.61 47 -9.22 47 -15 47 C-15 46.01 -15 45.02 -15 44 C-14.35546875 43.38898438 -13.7109375 42.77796875 -13.046875 42.1484375 C-9.18528652 38.09524348 -10.10109476 32.34175431 -10 27 C-9.97953613 26.10071777 -9.95907227 25.20143555 -9.93798828 24.27490234 C-9.87816859 21.28737833 -9.84060168 18.30048361 -9.8125 15.3125 C-9.79928711 14.33168457 -9.78607422 13.35086914 -9.77246094 12.34033203 C-9.77149414 11.41978027 -9.77052734 10.49922852 -9.76953125 9.55078125 C-9.76336792 8.30808472 -9.76336792 8.30808472 -9.75708008 7.0402832 C-9.81358471 4.77404958 -9.81358471 4.77404958 -12 3 C-13.64991582 2.29289322 -15.31562256 1.62056011 -17 1 C-17 0.01 -17 -0.98 -17 -2 C-15.10688117 -2.25060425 -13.21022961 -2.47460633 -11.3125 -2.6875 C-9.72888672 -2.87892578 -9.72888672 -2.87892578 -8.11328125 -3.07421875 C-4.32300424 -2.98386083 -3.00000891 -2.29985227 0 0 Z " fill="#000000" transform="translate(285,112)"/>
<path d="M0 0 C0 27.39 0 54.78 0 83 C-8.60520701 84.43420117 -16.71220382 83.06705142 -24 78 C-28.38173372 73.91038186 -31.5692648 69.62460652 -32.29434204 63.52313232 C-32.31403046 62.6553717 -32.33371887 61.78761108 -32.35400391 60.89355469 C-32.37967438 59.90192322 -32.40534485 58.91029175 -32.43179321 57.88861084 C-32.44656708 56.82708801 -32.46134094 55.76556519 -32.4765625 54.671875 C-32.49270599 53.56829651 -32.50884949 52.46471802 -32.52548218 51.32769775 C-32.5531069 48.99440747 -32.57457667 46.66103733 -32.59033203 44.32763672 C-32.61337696 41.94946498 -32.65429111 39.57139692 -32.71337891 37.19384766 C-32.79897929 33.74831257 -32.83109594 30.30584294 -32.8515625 26.859375 C-32.88657867 25.8059491 -32.92159485 24.75252319 -32.95767212 23.66717529 C-32.91581247 16.48273374 -31.14374297 12.90780587 -26.11068726 7.78985596 C-18.34549724 1.20499998 -9.91102107 0 0 0 Z " fill="#94D3DA" transform="translate(53,97)"/>
<path d="M0 0 C1.02991562 -0.00811203 2.05983124 -0.01622406 3.12095642 -0.02458191 C5.28318632 -0.03299191 7.44552343 -0.02630066 9.60766602 -0.00512695 C12.89873204 0.01950422 16.18394224 -0.02534981 19.47460938 -0.07617188 C21.58724447 -0.07580144 23.69988354 -0.07138075 25.8125 -0.0625 C26.78461929 -0.07980667 27.75673859 -0.09711334 28.75831604 -0.11494446 C37.57450491 0.06400739 42.24893136 4.14662117 48.21484375 10.26953125 C50.33839172 13.61820304 51.66148407 17.05677699 52.83984375 20.83203125 C53.03191406 21.40824219 53.22398437 21.98445313 53.421875 22.578125 C54.04560217 25.94158834 53.83984375 29.41122414 53.83984375 32.83203125 C26.44984375 32.83203125 -0.94015625 32.83203125 -29.16015625 32.83203125 C-30.5116408 24.72312397 -29.28539721 17.38210313 -24.59765625 10.45703125 C-17.76588943 2.64386859 -10.16325105 -0.09437625 0 0 Z " fill="#FAD68E" transform="translate(86.16015625,18.16796875)"/>
<path d="M0 0 C27.06 0 54.12 0 82 0 C82 14.20701754 82 14.20701754 78 21 C77.2265625 22.3303125 77.2265625 22.3303125 76.4375 23.6875 C66.42562713 33.18594349 56.11107014 32.94301512 42.95629883 32.78222656 C39.80831017 32.74995705 36.66541367 32.78207075 33.51757812 32.8203125 C31.49738461 32.81634908 29.47719425 32.80866469 27.45703125 32.796875 C26.52663528 32.80902039 25.59623932 32.82116577 24.63764954 32.8336792 C16.24223689 32.65423308 12.06578386 28.99610695 6.25 23.3125 C0.74125362 16.17914029 0 8.81649617 0 0 Z " fill="#8496B4" transform="translate(100,185)"/>
<path d="M0 0 C6.00134544 -0.07784502 11.10971021 0.4085453 15.8276062 4.37719727 C18.87276893 7.70157263 20.25338745 10.56787951 20.25338745 15.05297852 C18.60221011 20.37343882 16.63599344 22.76243173 12.25338745 26.05297852 C12.81928589 26.94500977 13.38518433 27.83704102 13.9682312 28.75610352 C14.70939852 29.93821848 15.45026836 31.12052 16.19088745 32.30297852 C16.56407104 32.88950195 16.93725464 33.47602539 17.32174683 34.08032227 C19.14995355 37.01204116 20.71614127 39.60778081 21.25338745 43.05297852 C23.56338745 43.38297852 25.87338745 43.71297852 28.25338745 44.05297852 C28.25338745 45.37297852 28.25338745 46.69297852 28.25338745 48.05297852 C25.17805632 50.10319927 22.01941629 50.73351935 18.33151245 50.60375977 C13.91002566 49.43189954 11.64201782 45.73114283 9.25338745 42.05297852 C7.49379609 38.63614339 5.7995566 35.21806353 4.22213745 31.71313477 C2.41130785 28.66792611 2.41130785 28.66792611 -1.46536255 28.17407227 C-2.54817505 28.13411133 -3.63098755 28.09415039 -4.74661255 28.05297852 C-4.54544801 30.6621126 -4.31214086 33.2613022 -4.05911255 35.86547852 C-3.97886841 36.97246094 -3.97886841 36.97246094 -3.89700317 38.10180664 C-3.69078758 40.55590392 -3.69078758 40.55590392 -2.74661255 44.05297852 C-0.2724463 45.90535001 -0.2724463 45.90535001 2.25338745 47.05297852 C2.25338745 48.04297852 2.25338745 49.03297852 2.25338745 50.05297852 C-7.64661255 50.54797852 -7.64661255 50.54797852 -17.74661255 51.05297852 C-18.24161255 49.07297852 -18.24161255 49.07297852 -18.74661255 47.05297852 C-17.75661255 46.39297852 -16.76661255 45.73297852 -15.74661255 45.05297852 C-15.48001072 42.14462967 -15.39882131 39.45159583 -15.4536438 36.54516602 C-15.46001106 35.2842363 -15.46001106 35.2842363 -15.46650696 33.99783325 C-15.48332723 31.30755858 -15.52098474 28.61802752 -15.55911255 25.92797852 C-15.57415509 24.10637474 -15.58784425 22.28475924 -15.60012817 20.46313477 C-15.63324161 15.99279528 -15.68504617 11.52301305 -15.74661255 7.05297852 C-17.06661255 6.39297852 -18.38661255 5.73297852 -19.74661255 5.05297852 C-19.74661255 7.69297852 -19.74661255 10.33297852 -19.74661255 13.05297852 C-21.62161255 12.80297852 -21.62161255 12.80297852 -23.74661255 12.05297852 C-24.87161255 10.05297852 -24.87161255 10.05297852 -25.74661255 8.05297852 C-28.15206893 6.85025033 -29.69658208 6.95226379 -32.37161255 6.99047852 C-33.18887817 6.99950195 -34.0061438 7.00852539 -34.84817505 7.01782227 C-35.47465942 7.02942383 -36.1011438 7.04102539 -36.74661255 7.05297852 C-37.98803315 10.77724033 -37.76484644 14.13649748 -37.6255188 18.00219727 C-37.60190781 18.774814 -37.57829681 19.54743073 -37.55397034 20.34346008 C-37.47744334 22.80932491 -37.39337208 25.27486697 -37.30911255 27.74047852 C-37.25588087 29.4129888 -37.20314054 31.08551481 -37.15090942 32.75805664 C-37.02184307 36.85656803 -36.88601047 40.95480603 -36.74661255 45.05297852 C-34.43661255 45.71297852 -32.12661255 46.37297852 -29.74661255 47.05297852 C-29.74661255 48.04297852 -29.74661255 49.03297852 -29.74661255 50.05297852 C-37.66661255 50.38297852 -45.58661255 50.71297852 -53.74661255 51.05297852 C-54.07661255 49.73297852 -54.40661255 48.41297852 -54.74661255 47.05297852 C-53.94223755 46.78485352 -53.13786255 46.51672852 -52.30911255 46.24047852 C-51.04067505 45.65266602 -51.04067505 45.65266602 -49.74661255 45.05297852 C-48.51481121 41.3575745 -48.62249143 37.94994474 -48.6489563 34.10375977 C-48.65037125 33.33114304 -48.65178619 32.55852631 -48.65324402 31.76249695 C-48.65883789 29.29678462 -48.67138922 26.83116336 -48.68411255 24.36547852 C-48.68912834 22.69295379 -48.69369111 21.02042763 -48.69778442 19.34790039 C-48.70880531 15.24955805 -48.7260657 11.15128372 -48.74661255 7.05297852 C-50.18400767 7.02585785 -51.62155118 7.00652785 -53.05911255 6.99047852 C-53.85962036 6.97887695 -54.66012817 6.96727539 -55.4848938 6.95532227 C-57.91522589 6.95639997 -57.91522589 6.95639997 -60.74661255 8.05297852 C-61.76416123 9.91830302 -61.76416123 9.91830302 -62.43411255 12.11547852 C-62.68547974 12.84895508 -62.93684692 13.58243164 -63.1958313 14.33813477 C-63.37758911 14.9040332 -63.55934692 15.46993164 -63.74661255 16.05297852 C-64.73661255 16.05297852 -65.72661255 16.05297852 -66.74661255 16.05297852 C-66.80091214 14.30332493 -66.83954078 12.55318065 -66.87161255 10.80297852 C-66.90641724 9.34118164 -66.90641724 9.34118164 -66.94192505 7.84985352 C-66.74236828 4.99220052 -66.08610963 3.52803541 -64.74661255 1.05297852 C-56.81826699 0.92172482 -48.88990876 0.79127554 -40.96153355 0.66182709 C-37.27929098 0.60168152 -33.59705323 0.54126848 -29.91482544 0.48022461 C-26.35515807 0.42122271 -22.79547943 0.36294895 -19.23579216 0.30516052 C-17.23024061 0.27241783 -15.22470112 0.238939 -13.21916199 0.20544434 C-8.81279858 0.13433502 -4.40611225 0.08498807 0 0 Z M-4.74661255 6.05297852 C-4.81986423 8.91565419 -4.8389946 11.75369751 -4.80911255 14.61547852 C-4.80460083 15.42178711 -4.80008911 16.2280957 -4.79544067 17.05883789 C-4.78361773 19.05691608 -4.76568169 21.05495635 -4.74661255 23.05297852 C-2.97611565 23.10708538 -1.20514406 23.14581971 0.56588745 23.17797852 C2.04508667 23.2127832 2.04508667 23.2127832 3.5541687 23.24829102 C6.47745272 23.2598049 6.47745272 23.2598049 9.25338745 21.05297852 C10.24451728 16.73448427 10.79238499 14.32955164 9.06588745 10.24047852 C7.17540502 7.95886179 5.87974561 6.43911199 3.25338745 5.05297852 C-1.0532818 4.43034224 -1.0532818 4.43034224 -4.74661255 6.05297852 Z " fill="#000000" transform="translate(600.7466125488281,108.947021484375)"/>
<path d="M0 0 C8.08051642 0.11580358 15.79691043 3.03218276 21.69140625 8.6015625 C26.52241844 14.36718468 28.27560698 20.6615137 28.1875 28.0625 C28.17847656 29.04734375 28.16945312 30.0321875 28.16015625 31.046875 C28.14855469 31.79453125 28.13695312 32.5421875 28.125 33.3125 C27.15675293 33.50042114 27.15675293 33.50042114 26.16894531 33.69213867 C23.23309143 34.27408382 20.30444606 34.88664723 17.375 35.5 C16.35921875 35.69658203 15.3434375 35.89316406 14.296875 36.09570312 C8.25584207 37.33649718 8.25584207 37.33649718 3.421875 40.98828125 C2.99390625 41.75527344 2.5659375 42.52226563 2.125 43.3125 C8.02568233 45.93502548 14.04350397 48.14603577 20.125 50.3125 C18.41133579 54.17534529 15.96765114 57.4567206 13.4375 60.8125 C13.02822266 61.38097656 12.61894531 61.94945312 12.19726562 62.53515625 C8.99783888 66.77157078 5.99124382 69.12349506 1.125 71.3125 C-0.87404459 71.37431206 -2.87628393 71.38415242 -4.875 71.3125 C-4.89812545 62.20290835 -4.91591612 53.09332674 -4.92681217 43.9837122 C-4.93204056 39.75418629 -4.9391374 35.5246804 -4.95043945 31.29516602 C-4.96126991 27.21681457 -4.96727717 23.13848243 -4.96987724 19.06011772 C-4.97173121 17.50072361 -4.97535127 15.9413306 -4.98073006 14.38194466 C-4.98794262 12.20520838 -4.98899085 10.02855286 -4.98852539 7.85180664 C-4.990746 6.61048477 -4.99296661 5.3691629 -4.99525452 4.09022522 C-4.8093623 -0.20364673 -4.49401669 0.3624207 0 0 Z " fill="#EC9F92" transform="translate(190.875,54.6875)"/>
<path d="M0 0 C2.66240777 4.57601336 2.95837862 8.25707504 2 13.4375 C0.20353146 16.37173195 -0.9441071 17.90955355 -4 19.4375 C-0.22635568 29.84791522 -0.22635568 29.84791522 7.015625 37.66015625 C9.10030984 38.29598596 9.10030984 38.29598596 12 38.4375 C11.66411682 40.95662388 11.42645046 42.10946119 9.375 43.6875 C5.99620784 44.754487 3.53115336 44.86367368 0 44.4375 C-5.08091376 40.91580845 -7.64508629 37.22576077 -10.375 31.75 C-10.72949219 31.07388672 -11.08398438 30.39777344 -11.44921875 29.70117188 C-14 24.75226231 -14 24.75226231 -14 22.4375 C-16.64 22.4375 -19.28 22.4375 -22 22.4375 C-21.82575982 25.04809854 -21.61242554 27.64503861 -21.375 30.25 C-21.32988281 30.98798828 -21.28476562 31.72597656 -21.23828125 32.48632812 C-21.05274552 34.94708336 -21.05274552 34.94708336 -20 38.4375 C-17.06587278 40.53210024 -17.06587278 40.53210024 -14 41.4375 C-14 42.4275 -14 43.4175 -14 44.4375 C-17.29119935 44.6339031 -20.58296934 44.81810745 -23.875 45 C-25.28072266 45.08411133 -25.28072266 45.08411133 -26.71484375 45.16992188 C-27.61074219 45.21826172 -28.50664062 45.26660156 -29.4296875 45.31640625 C-30.25710449 45.3635376 -31.08452148 45.41066895 -31.93701172 45.45922852 C-34 45.4375 -34 45.4375 -36 44.4375 C-36 43.4475 -36 42.4575 -36 41.4375 C-34.02 40.9425 -34.02 40.9425 -32 40.4375 C-32.33 27.5675 -32.66 14.6975 -33 1.4375 C-34.98 0.4475 -36.96 -0.5425 -39 -1.5625 C-39 -2.5525 -39 -3.5425 -39 -4.5625 C-36.02097935 -4.73221023 -33.04182744 -4.89833751 -30.0625 -5.0625 C-29.23169922 -5.11019531 -28.40089844 -5.15789062 -27.54492188 -5.20703125 C-7.38193639 -6.305404 -7.38193639 -6.305404 0 0 Z M-21 -0.5625 C-22.52491129 2.48732258 -22.14361434 5.65872539 -22.125 9 C-22.12886719 9.69802734 -22.13273437 10.39605469 -22.13671875 11.11523438 C-22.43922515 14.56498898 -22.43922515 14.56498898 -21 17.4375 C-19.37860563 17.56244616 -17.75115878 17.61321624 -16.125 17.625 C-14.79855469 17.64626953 -14.79855469 17.64626953 -13.4453125 17.66796875 C-10.74233274 17.60818424 -10.74233274 17.60818424 -8 15.4375 C-6.93181322 10.85955664 -6.6229997 8.50897452 -8.1875 4.0625 C-10.09484706 1.30013529 -10.80796665 0.32417593 -14 -0.5625 C-16.33203812 -0.6402346 -18.66839059 -0.65217728 -21 -0.5625 Z " fill="#000000" transform="translate(485,114.5625)"/>
<path d="M0 0 C4.85702716 4.56734363 7.41423649 9.63142918 7.875 16.3125 C7.74782627 24.01357598 4.84815501 31.04198744 -0.375 36.6875 C-6.37883501 41.98830983 -12.25235741 43.95407206 -20.3046875 43.8828125 C-21.59375 43.87636719 -22.8828125 43.86992187 -24.2109375 43.86328125 C-25.55729442 43.84657463 -26.90364859 43.82964479 -28.25 43.8125 C-29.61978517 43.80245664 -30.98957742 43.79333317 -32.359375 43.78515625 C-35.69809756 43.76164412 -39.03645761 43.7287793 -42.375 43.6875 C-42.375 42.6975 -42.375 41.7075 -42.375 40.6875 C-40.395 40.1925 -40.395 40.1925 -38.375 39.6875 C-38.3255814 34.47307724 -38.28927169 29.25879066 -38.26513672 24.04418945 C-38.25507589 22.27007676 -38.24142578 20.49598065 -38.22412109 18.72192383 C-38.19987622 16.17264716 -38.18851782 13.62358963 -38.1796875 11.07421875 C-38.16936493 10.28037277 -38.15904236 9.48652679 -38.14840698 8.66862488 C-38.1476189 4.80526957 -38.18059631 2.97910554 -40.375 -0.3125 C-42.92683404 -1.51700304 -42.92683404 -1.51700304 -45.375 -2.3125 C-45.375 -3.3025 -45.375 -4.2925 -45.375 -5.3125 C-9.76185136 -7.96454298 -9.76185136 -7.96454298 0 0 Z M-27.375 -1.3125 C-27.375 11.5575 -27.375 24.4275 -27.375 37.6875 C-22.66326623 40.04336688 -19.39764797 40.63101815 -14.28515625 39.03515625 C-8.85310825 36.67823412 -6.8050091 34.03352002 -4.375 28.6875 C-2.24206631 22.28869893 -2.84703677 13.17285403 -5.5703125 6.9609375 C-8.46269273 2.91766252 -11.55471763 0.14267958 -16.375 -1.3125 C-20.005 -1.3125 -23.635 -1.3125 -27.375 -1.3125 Z " fill="#000000" transform="translate(415.375,115.3125)"/>
<path d="M0 0 C0.72252457 -0.00095673 1.44504913 -0.00191345 2.18946838 -0.00289917 C3.71851692 -0.00358002 5.24756834 -0.00173236 6.77661133 0.00244141 C9.11611442 0.00778329 11.45542484 0.00249726 13.79492188 -0.00390625 C15.27994834 -0.0032453 16.76497469 -0.00196379 18.25 0 C19.30011513 -0.00303635 19.30011513 -0.00303635 20.3714447 -0.00613403 C23.42367408 0.00857709 25.7713555 0.15946225 28.69140625 1.1328125 C28.88618364 2.75695628 29.07200083 4.38217673 29.25390625 6.0078125 C29.41052734 7.36519531 29.41052734 7.36519531 29.5703125 8.75 C29.69140625 11.1328125 29.69140625 11.1328125 28.69140625 13.1328125 C27.70140625 13.1328125 26.71140625 13.1328125 25.69140625 13.1328125 C25.27890625 12.1634375 24.86640625 11.1940625 24.44140625 10.1953125 C23.08309639 7.07569102 23.08309639 7.07569102 20.94140625 6.4453125 C18.24821811 6.07125859 15.66005807 6.0379476 12.94140625 6.0703125 C10.34265625 6.10125 10.34265625 6.10125 7.69140625 6.1328125 C7.69140625 11.0828125 7.69140625 16.0328125 7.69140625 21.1328125 C12.74709829 20.9516922 12.74709829 20.9516922 17.69140625 20.1328125 C19.90447576 17.76026135 19.90447576 17.76026135 20.69140625 15.1328125 C22.01140625 15.4628125 23.33140625 15.7928125 24.69140625 16.1328125 C24.69140625 21.7428125 24.69140625 27.3528125 24.69140625 33.1328125 C23.37140625 32.8028125 22.05140625 32.4728125 20.69140625 32.1328125 C19.56640625 30.1328125 19.56640625 30.1328125 18.69140625 28.1328125 C15.87151466 26.53652771 15.87151466 26.53652771 8.69140625 27.1328125 C8.69140625 33.0728125 8.69140625 39.0128125 8.69140625 45.1328125 C21.1585937 43.65344966 21.1585937 43.65344966 30.69140625 36.1328125 C31.68140625 36.6278125 31.68140625 36.6278125 32.69140625 37.1328125 C32.27931814 42.38693587 31.51423538 45.41617307 27.69140625 49.1328125 C23.56727239 51.26650599 20.23687662 51.30496018 15.640625 51.109375 C14.65241508 51.07183609 14.65241508 51.07183609 13.64424133 51.03353882 C11.55523242 50.9518479 9.46724259 50.85506759 7.37890625 50.7578125 C5.95642085 50.69952055 4.53389451 50.64221845 3.11132812 50.5859375 C-0.36252652 50.44634764 -3.8356312 50.29322501 -7.30859375 50.1328125 C-6.64859375 48.8128125 -5.98859375 47.4928125 -5.30859375 46.1328125 C-4.64859375 46.1328125 -3.98859375 46.1328125 -3.30859375 46.1328125 C-3.30859375 32.9328125 -3.30859375 19.7328125 -3.30859375 6.1328125 C-5.28859375 5.1428125 -7.26859375 4.1528125 -9.30859375 3.1328125 C-9.30859375 2.4728125 -9.30859375 1.8128125 -9.30859375 1.1328125 C-6.32447133 -0.35924871 -3.27121903 -0.00943127 0 0 Z " fill="#000000" transform="translate(636.30859375,108.8671875)"/>
<path d="M0 0 C0.74709229 -0.0033284 1.49418457 -0.0066568 2.26391602 -0.01008606 C3.84423201 -0.01515091 5.42455871 -0.01749452 7.00488281 -0.01733398 C9.42791243 -0.01952259 11.85048836 -0.03768826 14.2734375 -0.05664062 C15.8072901 -0.05957417 17.34114488 -0.06155923 18.875 -0.0625 C19.60211182 -0.06968552 20.32922363 -0.07687103 21.07836914 -0.08427429 C26.20867197 -0.06085928 26.20867197 -0.06085928 28.4375 2.16796875 C28.6328125 4.76953125 28.6328125 4.76953125 28.5625 7.79296875 C28.54445313 8.79585937 28.52640625 9.79875 28.5078125 10.83203125 C28.48460937 11.60289063 28.46140625 12.37375 28.4375 13.16796875 C26.50390625 12.82421875 26.50390625 12.82421875 24.4375 12.16796875 C23.73538106 10.51592419 23.06778587 8.84873106 22.4375 7.16796875 C17.53681037 5.53440554 12.58011524 6.11267181 7.4375 6.16796875 C7.4375 11.11796875 7.4375 16.06796875 7.4375 21.16796875 C14.45616795 21.22670488 14.45616795 21.22670488 19.9375 17.60546875 C20.4325 16.80109375 20.9275 15.99671875 21.4375 15.16796875 C22.0975 15.16796875 22.7575 15.16796875 23.4375 15.16796875 C24.5087828 21.19393448 24.53695415 27.05706392 24.4375 33.16796875 C23.1175 32.83796875 21.7975 32.50796875 20.4375 32.16796875 C19.9425 29.69296875 19.9425 29.69296875 19.4375 27.16796875 C15.8075 27.16796875 12.1775 27.16796875 8.4375 27.16796875 C8.41050275 29.43873717 8.39110547 31.70959696 8.375 33.98046875 C8.36339844 35.24503906 8.35179687 36.50960937 8.33984375 37.8125 C8.27590884 41.16402112 8.27590884 41.16402112 9.4375 44.16796875 C15.47403699 44.49007645 20.26995145 44.73603799 25.4375 41.16796875 C27.78075664 38.61657022 27.78075664 38.61657022 29.4375 36.16796875 C30.4275 36.49796875 31.4175 36.82796875 32.4375 37.16796875 C30.84719163 46.96092029 30.84719163 46.96092029 26.4375 50.16796875 C22.90751672 51.34462984 20.30112584 51.18810644 16.58203125 51.046875 C15.58957649 51.01145851 15.58957649 51.01145851 14.57707214 50.97532654 C12.46781998 50.89887018 10.3589518 50.81476918 8.25 50.73046875 C6.81837804 50.67722995 5.38673746 50.62448968 3.95507812 50.57226562 C0.44898424 50.44327993 -3.05680571 50.30743751 -6.5625 50.16796875 C-6.5625 49.17796875 -6.5625 48.18796875 -6.5625 47.16796875 C-5.5725 46.50796875 -4.5825 45.84796875 -3.5625 45.16796875 C-1.77723941 37.36355085 -2.68346779 29.1164442 -3 21.16796875 C-3.05332105 19.71095885 -3.10606045 18.25392755 -3.15820312 16.796875 C-3.28625812 13.25363415 -3.42220134 9.7107484 -3.5625 6.16796875 C-5.5425 5.17796875 -7.5225 4.18796875 -9.5625 3.16796875 C-9.5625 2.50796875 -9.5625 1.84796875 -9.5625 1.16796875 C-6.51721781 -0.35467234 -3.34104754 0.00511338 0 0 Z " fill="#000000" transform="translate(503.5625,108.83203125)"/>
<path d="M0 0 C3 1 3 1 3.98596191 2.56719971 C4.415401 3.58049347 4.415401 3.58049347 4.85351562 4.61425781 C5.18395874 5.37885315 5.51440186 6.14344849 5.8548584 6.93121338 C6.20181763 7.76344421 6.54877686 8.59567505 6.90625 9.453125 C7.2722229 10.30549744 7.6381958 11.15786987 8.01525879 12.03607178 C9.18706679 14.76981151 10.34415045 17.50947927 11.5 20.25 C12.65828373 22.97511871 13.81963342 25.69887346 14.98474121 28.42108154 C15.70941033 30.11645631 16.42973666 31.81369572 17.1451416 33.51300049 C20.81442012 42.19342671 20.81442012 42.19342671 28 48 C28 48.66 28 49.32 28 50 C25.27023085 50.90992305 23.64911026 51.12844593 20.83984375 51.1328125 C19.6497168 51.13474609 19.6497168 51.13474609 18.43554688 51.13671875 C17.19901367 51.13091797 17.19901367 51.13091797 15.9375 51.125 C14.69516602 51.13080078 14.69516602 51.13080078 13.42773438 51.13671875 C12.23954102 51.13478516 12.23954102 51.13478516 11.02734375 51.1328125 C9.94054321 51.13112061 9.94054321 51.13112061 8.83178711 51.12939453 C7 51 7 51 5 50 C5 49.01 5 48.02 5 47 C6.485 46.505 6.485 46.505 8 46 C8.10142705 41.74006373 7.71527387 38.29164321 7 34 C1.06 34 -4.88 34 -11 34 C-11.66 37.3 -12.32 40.6 -13 44 C-10.69 44.99 -8.38 45.98 -6 47 C-6 47.99 -6 48.98 -6 50 C-11.94 50 -17.88 50 -24 50 C-22.97577443 45.90309773 -22.70825045 45.67431248 -20 43 C-18.92360649 40.81535162 -18.92360649 40.81535162 -18.0625 38.375 C-16.50336662 34.28673805 -14.83068958 30.28671732 -13.02734375 26.30078125 C-12.20645257 24.46235955 -11.41632284 22.61021284 -10.63671875 20.75390625 C-8.874552 16.63075675 -6.88858019 12.63003313 -4.875 8.625 C-4.51535156 7.90183594 -4.15570312 7.17867188 -3.78515625 6.43359375 C-1.12676222 1.12676222 -1.12676222 1.12676222 0 0 Z M-2 14 C-2.81752303 15.58074564 -3.62881997 17.16471223 -4.4375 18.75 C-4.88996094 19.63171875 -5.34242188 20.5134375 -5.80859375 21.421875 C-7.17346553 24.1645798 -7.17346553 24.1645798 -8 28 C-4.04 28 -0.08 28 4 28 C2.35 23.38 0.7 18.76 -1 14 C-1.33 14 -1.66 14 -2 14 Z " fill="#000000" transform="translate(690,109)"/>
<path d="M0 0 C0.85751358 -0.00315216 1.71502716 -0.00630432 2.598526 -0.009552 C3.98919533 -0.00651566 3.98919533 -0.00651566 5.40795898 -0.00341797 C6.35718735 -0.00437469 7.30641571 -0.00533142 8.28440857 -0.00631714 C10.29263373 -0.00699827 12.30086109 -0.00514866 14.30908203 -0.00097656 C17.39482529 0.00437852 20.48042337 -0.00092687 23.56616211 -0.00732422 C25.51342806 -0.00666354 27.46069392 -0.00538259 29.40795898 -0.00341797 C30.3370961 -0.0054422 31.26623322 -0.00746643 32.223526 -0.009552 C33.50506813 -0.00482376 33.50506813 -0.00482376 34.8125 0 C35.56813736 0.00079559 36.32377472 0.00159119 37.10231018 0.00241089 C38.84155273 0.12939453 38.84155273 0.12939453 39.84155273 1.12939453 C39.91381775 2.98226955 39.92536493 4.83773331 39.90405273 6.69189453 C39.8950293 7.70380859 39.88600586 8.71572266 39.87670898 9.75830078 C39.86510742 10.54076172 39.85350586 11.32322266 39.84155273 12.12939453 C38.52155273 11.79939453 37.20155273 11.46939453 35.84155273 11.12939453 C35.34655273 8.65439453 35.34655273 8.65439453 34.84155273 6.12939453 C30.88155273 6.12939453 26.92155273 6.12939453 22.84155273 6.12939453 C22.79219116 11.21971208 22.75585169 16.30989096 22.73168945 21.40039062 C22.72161898 23.13283718 22.70796184 24.86526669 22.69067383 26.59765625 C22.66647112 29.08484092 22.65508035 31.57180128 22.64624023 34.05908203 C22.63591766 34.83621552 22.62559509 35.613349 22.61495972 36.41403198 C22.61456002 38.32064946 22.71923133 40.22670489 22.84155273 42.12939453 C25.06345098 44.35129278 26.92637982 45.05538346 29.84155273 46.12939453 C29.84155273 47.11939453 29.84155273 48.10939453 29.84155273 49.12939453 C26.07114018 49.32610007 22.30021511 49.5101788 18.52905273 49.69189453 C16.92126953 49.77600586 16.92126953 49.77600586 15.28100586 49.86181641 C13.73896484 49.93432617 13.73896484 49.93432617 12.16577148 50.00830078 C11.21790771 50.05543213 10.27004395 50.10256348 9.29345703 50.15112305 C6.84155273 50.12939453 6.84155273 50.12939453 3.84155273 49.12939453 C3.84155273 48.13939453 3.84155273 47.14939453 3.84155273 46.12939453 C5.82155273 45.46939453 7.80155273 44.80939453 9.84155273 44.12939453 C10.8814287 39.879936 10.97144904 35.77011597 10.93920898 31.42236328 C10.93779404 30.69696854 10.93637909 29.97157379 10.93492126 29.22419739 C10.92935204 26.92172003 10.91680534 24.61934218 10.90405273 22.31689453 C10.89903375 20.74983865 10.89447154 19.18278124 10.89038086 17.61572266 C10.87939271 13.78690864 10.86214947 9.95816842 10.84155273 6.12939453 C9.4249948 6.10215303 8.00828229 6.08288986 6.59155273 6.06689453 C5.80264648 6.05529297 5.01374023 6.04369141 4.20092773 6.03173828 C1.93464272 6.12554147 0.01266323 6.4969839 -2.15844727 7.12939453 C-2.26157227 8.07814453 -2.36469727 9.02689453 -2.47094727 10.00439453 C-3.15844727 13.12939453 -3.15844727 13.12939453 -6.15844727 15.12939453 C-8.2679947 11.75254434 -8.24993549 9.79113458 -7.40844727 5.94189453 C-7.22797852 5.06146484 -7.04750977 4.18103516 -6.86157227 3.27392578 C-6.62954102 2.56623047 -6.39750977 1.85853516 -6.15844727 1.12939453 C-3.85830516 -0.02067652 -2.55728958 0.00268968 0 0 Z " fill="#000000" transform="translate(718.158447265625,109.87060546875)"/>
<path d="M0 0 C1.32 0 2.64 0 4 0 C5.7479503 5.24385089 6.19392201 9.47322267 6 15 C4.68 15 3.36 15 2 15 C1.78085937 14.46890625 1.56171875 13.9378125 1.3359375 13.390625 C-0.89948301 8.41090776 -2.78532292 5.26297307 -8 3 C-11.08273557 2.98486382 -13.98396758 3.38338893 -17 4 C-17.33380814 7.37436186 -17.33380814 7.37436186 -17 11 C-14.22070508 13.6108528 -11.03592137 14.99693833 -7.5625 16.5 C3.39970047 21.25689367 3.39970047 21.25689367 6 25 C6.9209133 30.68563861 7.53507171 37.3450809 4.5703125 42.47265625 C0.69415151 46.39040695 -3.08582504 48.83498492 -8.625 49.3125 C-13.64685186 49.15202729 -18.47746808 48.23997344 -23 46 C-25.78853682 41.42679962 -25.60193557 35.30054214 -26 30 C-24.12109375 30.26171875 -24.12109375 30.26171875 -22 31 C-20.91015625 32.70703125 -20.91015625 32.70703125 -20.0625 34.8125 C-18.30789025 38.6221196 -16.69221284 40.80225426 -13 43 C-9.89691308 43.88659626 -7.8823229 44.22058073 -4.75 43.4375 C-2.138662 41.29247236 -1.65282767 39.26413837 -1 36 C-1.86430493 33.55070083 -2.56221634 32.30370185 -4.70825195 30.81494141 C-5.37816162 30.49702637 -6.04807129 30.17911133 -6.73828125 29.8515625 C-7.47626953 29.48546875 -8.21425781 29.119375 -8.97460938 28.7421875 C-10.52062468 28.00340659 -12.06748773 27.26639684 -13.61523438 26.53125 C-18.66973945 24.01936737 -21.86756859 21.75392531 -25 17 C-26.19039589 12.14969128 -25.48794037 8.03218155 -23.375 3.5625 C-16.667767 -3.6742514 -8.68664447 -3.2322398 0 0 Z " fill="#000000" transform="translate(784,111)"/>
<path d="M0 0 C0 0.99 0 1.98 0 3 C-1.65 3.33 -3.3 3.66 -5 4 C-4.88192372 9.37531833 -4.75768794 14.75044513 -4.62768555 20.12548828 C-4.58431435 21.95487575 -4.54264089 23.78430427 -4.50268555 25.61376953 C-4.44503582 28.24003486 -4.38132635 30.8660931 -4.31640625 33.4921875 C-4.29969376 34.31306854 -4.28298126 35.13394958 -4.26576233 35.97970581 C-4.2568613 40.1233696 -4.2568613 40.1233696 -3 44 C-1.02111039 44.72693904 0.97954558 45.39816251 3 46 C3 46.99 3 47.98 3 49 C0.02181366 49.88099735 -2.45292865 50.06705164 -5.546875 49.87890625 C-6.39121094 49.83056641 -7.23554688 49.78222656 -8.10546875 49.73242188 C-8.97816406 49.67634766 -9.85085938 49.62027344 -10.75 49.5625 C-11.63816406 49.51029297 -12.52632813 49.45808594 -13.44140625 49.40429688 C-15.62799196 49.27498267 -17.81407894 49.14003358 -20 49 C-20 48.01 -20 47.02 -20 46 C-19.34805664 45.61610107 -18.69611328 45.23220215 -18.02441406 44.83666992 C-15.59027354 43.03065857 -15.59027354 43.03065857 -15.54589844 39.26293945 C-15.54653081 37.71290909 -15.56907778 36.16278783 -15.609375 34.61328125 C-15.61786469 33.38776802 -15.61786469 33.38776802 -15.62652588 32.13749695 C-15.64891303 29.52856797 -15.69911154 26.92101364 -15.75 24.3125 C-15.77006208 22.54363963 -15.78831336 20.77475773 -15.8046875 19.00585938 C-15.8487852 14.67004344 -15.91782706 10.33525475 -16 6 C-18.31 5.01 -20.62 4.02 -23 3 C-23 2.01 -23 1.02 -23 0 C-20.29204274 -0.19601027 -17.58400195 -0.38204839 -14.875 -0.5625 C-14.11445313 -0.61857422 -13.35390625 -0.67464844 -12.5703125 -0.73242188 C-8.20006872 -1.01498074 -4.31929331 -0.93147699 0 0 Z " fill="#000000" transform="translate(445,110)"/>
<path d="M0 0 C3.63 0 7.26 0 11 0 C11 0.99 11 1.98 11 3 C10.34 3 9.68 3 9 3 C9 5.97 9 8.94 9 12 C13.29 12 17.58 12 22 12 C22 9.03 22 6.06 22 3 C21.01 2.67 20.02 2.34 19 2 C19 1.34 19 0.68 19 0 C22.63 0 26.26 0 30 0 C30 0.99 30 1.98 30 3 C29.01 3 28.02 3 27 3 C27 10.92 27 18.84 27 27 C28.32 27.33 29.64 27.66 31 28 C31 28.66 31 29.32 31 30 C27.04 30 23.08 30 19 30 C19.33 29.01 19.66 28.02 20 27 C20.66 27 21.32 27 22 27 C22 23.7 22 20.4 22 17 C17.71 17 13.42 17 9 17 C9 20.3 9 23.6 9 27 C9.99 27 10.98 27 12 27 C12 27.99 12 28.98 12 30 C8.04 30 4.08 30 0 30 C0.495 28.515 0.495 28.515 1 27 C1.66 27 2.32 27 3 27 C3 19.08 3 11.16 3 3 C2.01 2.67 1.02 2.34 0 2 C0 1.34 0 0.68 0 0 Z " fill="#000000" transform="translate(269,178)"/>
<path d="M0 0 C5.67830078 -0.02464705 11.35657069 -0.04283462 17.03491211 -0.05493164 C18.96818585 -0.05997256 20.90145576 -0.06680519 22.8347168 -0.07543945 C25.60726872 -0.08751565 28.37977041 -0.09323057 31.15234375 -0.09765625 C32.45702858 -0.10539818 32.45702858 -0.10539818 33.78807068 -0.11329651 C35.85905814 -0.11349185 37.92994324 -0.06208168 40 0 C41 1 41 1 41.1875 4.4375 C41 8 41 8 39 10 C36.0633979 10.2459409 33.21437888 10.37375252 30.2734375 10.4140625 C29.41062164 10.43342865 28.54780579 10.4527948 27.65884399 10.4727478 C24.89766384 10.53262204 22.13644216 10.57895998 19.375 10.625 C17.50518995 10.66317259 15.63539762 10.70222389 13.765625 10.7421875 C9.17722691 10.83832992 4.58874649 10.92233166 0 11 C0 7.37 0 3.74 0 0 Z " fill="#2EB1E5" transform="translate(56,141)"/>
<path d="M0 0 C1.35439668 2.70879335 1.06501451 5.00933268 1 8 C0.01 8 -0.98 8 -2 8 C-2.061875 7.38125 -2.12375 6.7625 -2.1875 6.125 C-2.81928535 3.82108004 -2.81928535 3.82108004 -5.0625 2.75 C-9.68423767 1.56998187 -14.07992904 0.96611563 -18.4375 3.3125 C-21.32281084 6.42863571 -21.27550221 9.83425728 -21.22265625 13.93359375 C-20.88205963 17.0945694 -19.70277003 19.35124663 -18 22 C-14.30513897 24.46324069 -12.36706908 24.38991688 -8 24 C-6 23 -6 23 -5 21 C-4.2730774 17.89160979 -4.2730774 17.89160979 -4 15 C-5.32 14.34 -6.64 13.68 -8 13 C-7.67 12.34 -7.34 11.68 -7 11 C-3.7 11 -0.4 11 3 11 C2.19653128 22.34694602 2.19653128 22.34694602 -0.26953125 25.75390625 C-5.38059215 29.12397317 -12.156787 28.81967293 -18 28 C-21.5625 26.1875 -21.5625 26.1875 -24 24 C-24.598125 23.484375 -25.19625 22.96875 -25.8125 22.4375 C-28.49432507 19.19108017 -28.33849805 15.34888009 -28.2734375 11.34765625 C-27.64314034 5.9361049 -25.14260541 2.9283669 -21 -0.4375 C-14.6835406 -3.62307368 -6.22138849 -3.12176433 0 0 Z " fill="#000000" transform="translate(446,180)"/>
<path d="M0 0 C2.35487205 0.33643979 2.35487205 0.33643979 6.03515625 0.25390625 C5.60991809 1.86136681 5.16945499 3.46480461 4.72265625 5.06640625 C4.47902344 5.95972656 4.23539062 6.85304687 3.984375 7.7734375 C2.99624807 10.35557989 2.20804698 11.57874665 0.03515625 13.25390625 C-5.33470676 14.56897474 -5.33470676 14.56897474 -7.96484375 13.25390625 C-7.96484375 13.91390625 -7.96484375 14.57390625 -7.96484375 15.25390625 C-7.34996094 15.30289063 -6.73507812 15.351875 -6.1015625 15.40234375 C-5.29332031 15.47710937 -4.48507812 15.551875 -3.65234375 15.62890625 C-2.85183594 15.69851562 -2.05132812 15.768125 -1.2265625 15.83984375 C1.03515625 16.25390625 1.03515625 16.25390625 4.03515625 18.25390625 C4.59765625 20.56640625 4.59765625 20.56640625 4.03515625 23.25390625 C0.74831728 26.86141243 -0.73270103 28.08395553 -5.58984375 28.75390625 C-9.11183953 28.2321291 -10.68727023 27.98699447 -12.96484375 25.25390625 C-13.28975192 22.26475109 -13.09609954 19.83726532 -12.4375 16.91015625 C-11.77146135 13.16712913 -12.04640786 9.56150028 -12.22265625 5.77734375 C-11.96484375 3.25390625 -11.96484375 3.25390625 -10.64453125 1.48046875 C-7.04614967 -1.14718664 -4.23083115 -0.64399935 0 0 Z M-6.96484375 3.25390625 C-6.96484375 5.56390625 -6.96484375 7.87390625 -6.96484375 10.25390625 C-5.01881101 10.84460639 -5.01881101 10.84460639 -2.96484375 11.25390625 C-1.60865876 10.1285652 -1.60865876 10.1285652 -1.90234375 7.19140625 C-1.92296875 6.22203125 -1.94359375 5.25265625 -1.96484375 4.25390625 C-3.61484375 3.92390625 -5.26484375 3.59390625 -6.96484375 3.25390625 Z M-8.96484375 20.25390625 C-9.29484375 21.24390625 -9.62484375 22.23390625 -9.96484375 23.25390625 C-8.79500931 24.65072193 -8.79500931 24.65072193 -5.52734375 24.37890625 C-2.12378791 24.50653435 -2.12378791 24.50653435 0.03515625 23.25390625 C-0.29484375 22.26390625 -0.62484375 21.27390625 -0.96484375 20.25390625 C-3.60484375 20.25390625 -6.24484375 20.25390625 -8.96484375 20.25390625 Z " fill="#000000" transform="translate(400.96484375,188.74609375)"/>
<path d="M0 0 C0.33 4.29 0.66 8.58 1 13 C2.65 12.67 4.3 12.34 6 12 C11.63855422 14.27710843 11.63855422 14.27710843 13 17 C13.60372446 21.87291885 13.67279416 25.75408489 11.3125 30.125 C8 32 8 32 -5 32 C-5 23.09 -5 14.18 -5 5 C-5.99 5 -6.98 5 -8 5 C-8 4.01 -8 3.02 -8 2 C-5.09399739 0.74335022 -3.20395416 0 0 0 Z M0 18 C-0.19941868 20.06772734 -0.19941868 20.06772734 -0.1875 22.4375 C-0.20167969 23.24058594 -0.21585937 24.04367188 -0.23046875 24.87109375 C-0.20162356 27.21630633 -0.20162356 27.21630633 2 29 C5.08347826 29.16681109 5.08347826 29.16681109 8 29 C9.52491998 25.95016004 9.23562548 23.3576631 9 20 C7.95625978 17.95548981 7.95625978 17.95548981 6 17 C2.70693316 16.50904853 2.70693316 16.50904853 0 18 Z " fill="#000000" transform="translate(492,176)"/>
<path d="M0 0 C0 0.66 0 1.32 0 2 C1.3303125 1.4121875 1.3303125 1.4121875 2.6875 0.8125 C6 0 6 0 8.75 1.1875 C11 3 11 3 13 6 C13.1953125 8.69921875 13.1953125 8.69921875 13.125 11.6875 C13.10695313 12.68136719 13.08890625 13.67523438 13.0703125 14.69921875 C13.04710937 15.45847656 13.02390625 16.21773437 13 17 C13.99 17 14.98 17 16 17 C16 17.99 16 18.98 16 20 C12.7 20 9.4 20 6 20 C6.33 19.01 6.66 18.02 7 17 C7.06802967 15.27204648 7.08495645 13.54164635 7.0625 11.8125 C7.05347656 10.91144531 7.04445313 10.01039063 7.03515625 9.08203125 C7.02355469 8.39496094 7.01195312 7.70789063 7 7 C5.35 6.67 3.7 6.34 2 6 C1.67 9.63 1.34 13.26 1 17 C1.99 17 2.98 17 4 17 C4 17.99 4 18.98 4 20 C0.7 20 -2.6 20 -6 20 C-6 19.01 -6 18.02 -6 17 C-5.34 17 -4.68 17 -4 17 C-4.11351517 15.18674449 -4.24112961 13.37436643 -4.375 11.5625 C-4.44460938 10.55316406 -4.51421875 9.54382813 -4.5859375 8.50390625 C-4.72257812 7.67761719 -4.85921875 6.85132813 -5 6 C-5.66 5.67 -6.32 5.34 -7 5 C-7 4.01 -7 3.02 -7 2 C-2.25 0 -2.25 0 0 0 Z " fill="#000000" transform="translate(371,188)"/>
<path d="M0 0 C4.29 0 8.58 0 13 0 C12.67 9.24 12.34 18.48 12 28 C4.1137905 21.24039186 4.1137905 21.24039186 2.625 17.375 C2.32851562 16.64023438 2.03203125 15.90546875 1.7265625 15.1484375 C-0.04114953 9.92133203 -0.08105389 5.5116647 0 0 Z " fill="#105481" transform="translate(100,185)"/>
<path d="M0 0 C2.97 0 5.94 0 9 0 C9 0.99 9 1.98 9 3 C9.48734036 5.78480204 10.10412639 8.31237917 11 11 C11.66 8.69 12.32 6.38 13 4 C12.34 3.67 11.68 3.34 11 3 C11 2.01 11 1.02 11 0 C13.64 0 16.28 0 19 0 C19.33 0.66 19.66 1.32 20 2 C19.67 2.66 19.34 3.32 19 4 C18.34 4 17.68 4 17 4 C16.90847656 4.79664063 16.81695313 5.59328125 16.72265625 6.4140625 C15.80366698 10.97423628 14.17100189 15.07042303 12.4375 19.375 C12.10814453 20.20644531 11.77878906 21.03789062 11.43945312 21.89453125 C10.63155238 23.93184618 9.8182989 25.96684442 9 28 C7.68 28 6.36 28 5 28 C5.2165625 26.9790625 5.2165625 26.9790625 5.4375 25.9375 C5.623125 24.968125 5.80875 23.99875 6 23 C6.309375 21.989375 6.61875 20.97875 6.9375 19.9375 C7.02154057 14.6429443 4.96812317 11.33992547 2.4453125 6.76953125 C1 4 1 4 0 0 Z " fill="#000000" transform="translate(548,189)"/>
<path d="M0 0 C2.38017474 2.35249829 2.96649986 3.6551719 3.29296875 7.015625 C3.25816406 8.08296875 3.22335937 9.1503125 3.1875 10.25 C3.16042969 11.32765625 3.13335937 12.4053125 3.10546875 13.515625 C3.07066406 14.33546875 3.03585937 15.1553125 3 16 C3.99 16 4.98 16 6 16 C5.67 16.99 5.34 17.98 5 19 C2.54101345 19.08076963 0.08466258 19.14037143 -2.375 19.1875 C-3.07367188 19.21263672 -3.77234375 19.23777344 -4.4921875 19.26367188 C-6.5234375 19.29296875 -6.5234375 19.29296875 -10 19 C-12 16 -12 16 -11.9375 13.5 C-11 11 -11 11 -8.6875 9.1875 C-6 8 -6 8 -2 8 C-2.79117904 6.00016466 -2.79117904 6.00016466 -4 4 C-4.99 3.67 -5.98 3.34 -7 3 C-7 4.65 -7 6.3 -7 8 C-8.32 8 -9.64 8 -11 8 C-11.75 6.25 -11.75 6.25 -12 4 C-8.16595074 -0.62730084 -5.83281509 -1.54748156 0 0 Z M-7 13 C-6.67 13.99 -6.34 14.98 -6 16 C-4.68 15.67 -3.36 15.34 -2 15 C-2 13.68 -2 12.36 -2 11 C-4.32357511 10.81509993 -4.32357511 10.81509993 -7 13 Z " fill="#000000" transform="translate(333,189)"/>
<path d="M0 0 C3.29201287 3.29201287 2.45967456 7.64207176 2.65625 12.12890625 C2.82640625 13.55009766 2.82640625 13.55009766 3 15 C3.66 15.33 4.32 15.66 5 16 C5 16.99 5 17.98 5 19 C2.54137599 19.05383848 0.0839245 19.09359038 -2.375 19.125 C-3.42300781 19.15013672 -3.42300781 19.15013672 -4.4921875 19.17578125 C-6.32897486 19.19344267 -8.16601963 19.10303261 -10 19 C-12 17 -12 17 -12.5 14.625 C-12 12 -12 12 -9.1875 9.75 C-6 8 -6 8 -3 7 C-3 6.01 -3 5.02 -3 4 C-4.32 4.33 -5.64 4.66 -7 5 C-7 5.99 -7 6.98 -7 8 C-8.65 7.67 -10.3 7.34 -12 7 C-11.72776186 3.64239623 -11.41629629 2.35682539 -8.8125 0.125 C-5.36900444 -1.25239822 -3.53120166 -1.02012492 0 0 Z M-7 12 C-7 13.32 -7 14.64 -7 16 C-5.68 16 -4.36 16 -3 16 C-3 14.35 -3 12.7 -3 11 C-4.36893239 10.94729537 -4.36893239 10.94729537 -7 12 Z " fill="#000000" transform="translate(520,189)"/>
<path d="M0 0 C3.08099257 2.76499333 3.89284023 4.34513471 4.5625 8.4375 C4.00456663 11.971078 3.24113964 14.25120301 0.7578125 16.890625 C-2.91074242 19.20589077 -6.88690407 18.88330421 -11 18 C-14.11199254 16.00832478 -15.61304528 14.72909499 -16.43359375 11.0625 C-16.66515166 7.35757352 -16.21523797 5.36670173 -14.3125 2.125 C-9.41881826 -2.37189673 -6.1601026 -2.5760429 0 0 Z M-11 4 C-11.332557 7.5916156 -11.39866425 10.13622746 -9.875 13.4375 C-8.0026542 15.29461587 -8.0026542 15.29461587 -4.875 15.3125 C-2.10649557 15.31534788 -2.10649557 15.31534788 -1 14 C-0.76179079 11.96729438 -0.76179079 11.96729438 -0.75 9.625 C-0.72421875 8.83351562 -0.6984375 8.04203125 -0.671875 7.2265625 C-1.07540635 4.48831403 -1.80799033 3.64010225 -4 2 C-7.48221301 1.57533988 -8.4650931 1.4650931 -11 4 Z " fill="#000000" transform="translate(479,190)"/>
<path d="M0 0 C3.02298586 1.51149293 4.36926355 2.4260271 5.875 5.4375 C5.545 6.7575 5.215 8.0775 4.875 9.4375 C1.245 9.4375 -2.385 9.4375 -6.125 9.4375 C-5.0604148 12.04693058 -5.0604148 12.04693058 -3.125 14.4375 C0.35617973 14.87264747 2.54839034 14.54636989 5.875 13.4375 C5.5625 15.3125 5.5625 15.3125 4.875 17.4375 C1.18245291 19.89919806 -1.83903609 20.11150239 -6.125 19.4375 C-8.79798737 17.7925847 -9.78506077 16.56827009 -10.6875 13.56640625 C-11.32027649 10.07954414 -11.33141038 7.95352595 -10 4.625 C-6.8918867 0.99886782 -4.89458906 -0.88102603 0 0 Z M-4.125 3.4375 C-4.455 4.0975 -4.785 4.7575 -5.125 5.4375 C-3.475 5.4375 -1.825 5.4375 -0.125 5.4375 C-0.455 4.7775 -0.785 4.1175 -1.125 3.4375 C-2.115 3.4375 -3.105 3.4375 -4.125 3.4375 Z " fill="#000000" transform="translate(313.125,188.5625)"/>
<path d="M0 0 C0 9.24 0 18.48 0 28 C0.99 28 1.98 28 3 28 C3 28.99 3 29.98 3 31 C-0.3 31 -3.6 31 -7 31 C-7 30.01 -7 29.02 -7 28 C-6.34 28 -5.68 28 -5 28 C-5 20.08 -5 12.16 -5 4 C-5.99 4 -6.98 4 -8 4 C-8 3.01 -8 2.02 -8 1 C-4.59449725 -1.06762667 -4.18836538 -1.04709135 0 0 Z " fill="#000000" transform="translate(546,177)"/>
<path d="M0 0 C0 9.57 0 19.14 0 29 C0.99 29 1.98 29 3 29 C3 29.99 3 30.98 3 32 C-0.3 32 -3.6 32 -7 32 C-7 31.01 -7 30.02 -7 29 C-6.34 29 -5.68 29 -5 29 C-5 21.08 -5 13.16 -5 5 C-5.99 5 -6.98 5 -8 5 C-8 4.01 -8 3.02 -8 2 C-5.09399739 0.74335022 -3.20395416 0 0 0 Z " fill="#000000" transform="translate(534,176)"/>
<path d="M0 0 C0.33 9.24 0.66 18.48 1 28 C1.99 28.33 2.98 28.66 4 29 C4 29.99 4 30.98 4 32 C0.37 32 -3.26 32 -7 32 C-6.505 30.515 -6.505 30.515 -6 29 C-5.85110253 27.15533558 -5.7520899 25.30642725 -5.68359375 23.45703125 C-5.64169922 22.38388672 -5.59980469 21.31074219 -5.55664062 20.20507812 C-5.49766602 18.52575195 -5.49766602 18.52575195 -5.4375 16.8125 C-5.39431641 15.68134766 -5.35113281 14.55019531 -5.30664062 13.38476562 C-5.20050901 10.58996646 -5.09845615 7.79507838 -5 5 C-5.66 5 -6.32 5 -7 5 C-7 4.01 -7 3.02 -7 2 C-4.35261084 0.5393715 -3.10551666 0 0 0 Z " fill="#000000" transform="translate(458,176)"/>
<path d="M0 0 C0 9.57 0 19.14 0 29 C1.32 29.33 2.64 29.66 4 30 C4 30.66 4 31.32 4 32 C0.37 32 -3.26 32 -7 32 C-6.505 30.515 -6.505 30.515 -6 29 C-5.85110253 27.15533558 -5.7520899 25.30642725 -5.68359375 23.45703125 C-5.64169922 22.38388672 -5.59980469 21.31074219 -5.55664062 20.20507812 C-5.49766602 18.52575195 -5.49766602 18.52575195 -5.4375 16.8125 C-5.39431641 15.68134766 -5.35113281 14.55019531 -5.30664062 13.38476562 C-5.20050901 10.58996646 -5.09845615 7.79507838 -5 5 C-5.66 5 -6.32 5 -7 5 C-7 4.01 -7 3.02 -7 2 C-4.35261084 0.5393715 -3.10551666 0 0 0 Z " fill="#000000" transform="translate(347,176)"/>
<path d="M0 0 C-0.25578378 2.89787973 -0.52900803 5.79231034 -0.8125 8.6875 C-0.88275391 9.50412109 -0.95300781 10.32074219 -1.02539062 11.16210938 C-1.49100429 15.76237239 -1.99421059 19.28696603 -5 23 C-7.6875 23.8125 -7.6875 23.8125 -10 24 C-11.58625396 19.14209725 -12.52997971 15.18703543 -12 10 C-9.8828125 7.12890625 -9.8828125 7.12890625 -7.125 4.5625 C-6.22007812 3.69753906 -5.31515625 2.83257812 -4.3828125 1.94140625 C-2 0 -2 0 0 0 Z " fill="#69CAD1" transform="translate(239,104)"/>
<path d="M0 0 C0 5.61 0 11.22 0 17 C0.99 17 1.98 17 3 17 C3.33 17.99 3.66 18.98 4 20 C0.7 20 -2.6 20 -6 20 C-5.34 15.38 -4.68 10.76 -4 6 C-4.99 5.67 -5.98 5.34 -7 5 C-7 4.01 -7 3.02 -7 2 C-2.25 0 -2.25 0 0 0 Z " fill="#000000" transform="translate(359,188)"/>
<path d="M0 0 C0 1.98 0 3.96 0 6 C-10.89 6.495 -10.89 6.495 -22 7 C-21.67 6.01 -21.34 5.02 -21 4 C-14.22337258 1.02465257 -7.37445212 -0.5783884 0 0 Z " fill="#2DBDB6" transform="translate(53,97)"/>
<path d="M0 0 C4.75 0.875 4.75 0.875 7 2 C6.125 6.75 6.125 6.75 5 9 C2.625 9.1875 2.625 9.1875 0 9 C-2 6 -2 6 -1.6875 3.9375 C-1 2 -1 2 0 0 Z " fill="#000000" transform="translate(577,198)"/>
<path d="M0 0 C4.55555556 0.55555556 4.55555556 0.55555556 6 2 C6.1875 4.4375 6.1875 4.4375 6 7 C5.34 7.66 4.68 8.32 4 9 C-0.55555556 8.44444444 -0.55555556 8.44444444 -2 7 C-2.1875 4.5625 -2.1875 4.5625 -2 2 C-1.34 1.34 -0.68 0.68 0 0 Z " fill="#000000" transform="translate(600,198)"/>
<path d="M0 0 C5.875 0.875 5.875 0.875 7 2 C7.1875 4.4375 7.1875 4.4375 7 7 C6.34 7.66 5.68 8.32 5 9 C0.44444444 8.44444444 0.44444444 8.44444444 -1 7 C-0.71269945 4.66055264 -0.38063221 2.3260857 0 0 Z " fill="#000000" transform="translate(588,198)"/>
<path d="M0 0 C1.65 0.33 3.3 0.66 5 1 C4.67 2.32 4.34 3.64 4 5 C2.68 5 1.36 5 0 5 C-0.33 4.01 -0.66 3.02 -1 2 C-0.67 1.34 -0.34 0.68 0 0 Z " fill="#000000" transform="translate(355,181)"/>
</svg>
