<?xml version="1.0" encoding="UTF-8"?>
<svg version="1.1" xmlns="http://www.w3.org/2000/svg" width="512" height="512">
<path d="M0 0 C1.23314106 -0.00679667 1.23314106 -0.00679667 2.49119407 -0.01373065 C5.24392724 -0.02638346 7.99646278 -0.02475369 10.7492218 -0.02310181 C12.7238592 -0.02908661 14.69849425 -0.03589205 16.67312622 -0.04345703 C22.03697938 -0.06113179 27.40076873 -0.06581311 32.7646482 -0.0670886 C36.11746684 -0.06851024 39.47026926 -0.07278013 42.82308388 -0.07808304 C54.52503616 -0.09659011 66.22694287 -0.10475304 77.9289093 -0.10317993 C88.82782783 -0.10197923 99.72654809 -0.12306592 110.62541646 -0.15466726 C119.98866286 -0.18084615 129.35184458 -0.19154651 138.71512729 -0.19026911 C144.304578 -0.18975984 149.89385264 -0.19542374 155.48326683 -0.21662521 C160.74382695 -0.23603394 166.00404356 -0.23611389 171.26461601 -0.22159195 C173.19065606 -0.21950584 175.11671775 -0.22419286 177.04272079 -0.23631287 C190.48614179 -0.31540005 200.60321961 0.37345673 210.81684875 10.04476929 C216.34655501 16.25069209 218.90853996 22.56788976 218.94448853 30.81300354 C218.95522148 32.50560806 218.95522148 32.50560806 218.96617126 34.23240662 C218.96886017 35.46623581 218.97154907 36.700065 218.97431946 37.97128296 C218.98089066 39.27414246 218.98746185 40.57700195 218.99423218 41.91934204 C219.01523236 46.23718035 219.02563173 50.55501884 219.03559875 54.87289429 C219.03964802 56.36228262 219.04376499 57.85167077 219.04794884 59.34105873 C219.06699274 66.34042684 219.08122466 73.33978447 219.08956081 80.3391735 C219.09932636 88.40446962 219.12563119 96.46949079 219.1660617 104.53469008 C219.19627806 110.77774951 219.21103495 117.02073037 219.21434182 123.26386148 C219.21668628 126.98825408 219.2255672 130.71235269 219.25080299 134.43666649 C219.27853717 138.59681716 219.27423578 142.75635805 219.26728821 146.91659546 C219.2865033 148.75215752 219.2865033 148.75215752 219.30610657 150.62480164 C219.24650629 160.43114348 217.13414979 167.38672822 210.3598175 174.64242554 C209.61860657 175.45453491 208.87739563 176.26664429 208.11372375 177.10336304 C205.7973175 179.26742554 205.7973175 179.26742554 203.19249439 180.30118275 C200.67316081 181.97017128 200.67316081 181.97017128 200.33271444 184.13994634 C200.14571218 186.73515898 200.12855746 189.28940674 200.15808105 191.89137268 C200.14972538 192.89032273 200.1413697 193.88927278 200.13276082 194.91849405 C200.11073188 198.28149236 200.12446867 201.64340905 200.13789368 205.00643921 C200.12944594 207.41080051 200.11880438 209.81515497 200.10612488 212.21949768 C200.08373997 217.40386646 200.07668223 222.58801792 200.0834713 227.77242088 C200.09326079 235.2681931 200.07555426 242.76370119 200.05110399 250.25943068 C200.01218496 262.42022318 199.99554972 274.58094028 199.99287415 286.74179077 C199.99022725 298.55595773 199.97711907 310.37003656 199.9499054 322.18417358 C199.94823202 322.91221233 199.94655864 323.64025109 199.94483455 324.39035162 C199.93637517 328.04265352 199.92770974 331.69495489 199.91894186 335.34725606 C199.84645278 365.65396766 199.81047568 395.96062672 199.7973175 426.26742554 C200.9012384 426.09831665 202.0051593 425.92920776 203.14253235 425.75497437 C206.31752813 425.3314295 208.35681547 425.25822053 211.4223175 425.95492554 C212.13645813 426.10316772 212.85059875 426.25140991 213.58638 426.40414429 C216.87264267 427.68729632 218.46491806 428.52010875 220.7973175 431.26742554 C221.5425886 435.25209419 221.45831078 439.16317313 221.3598175 443.20492554 C221.34249573 444.33631958 221.32517395 445.46771362 221.30732727 446.63339233 C221.07579051 454.81848205 220.34017996 461.79156399 216.7973175 469.26742554 C216.3229425 470.27418335 215.8485675 471.28094116 215.3598175 472.31820679 C207.87035335 486.48697672 195.44849138 497.09302835 180.12246513 501.84671116 C172.42543401 503.8830175 164.7391322 503.68665598 156.84495544 503.65510559 C155.13705594 503.65928376 153.42915921 503.66476391 151.72126758 503.6714254 C147.05091102 503.68583538 142.38073161 503.68164923 137.71036553 503.67425859 C132.66457494 503.66951819 127.61882219 503.68204448 122.57304382 503.692276 C112.69679705 503.70945223 102.82061393 503.71030644 92.9443561 503.7050631 C84.9150701 503.70101798 76.88580289 503.70246902 68.85651779 503.70781136 C67.14088414 503.70893399 67.14088414 503.70893399 65.39059123 503.7100793 C63.0668846 503.71161081 60.74317798 503.71314916 58.41947137 503.71469427 C36.63931311 503.72841506 14.85919079 503.72298457 -6.92096664 503.71150906 C-26.83488873 503.7015771 -46.7487179 503.71451748 -66.66262566 503.73844325 C-87.12418088 503.76284126 -107.58569284 503.77244039 -128.04726231 503.76579052 C-139.52930156 503.76229987 -151.01126935 503.76452024 -162.49329758 503.78204155 C-172.26760754 503.79677226 -182.04179573 503.79738753 -191.81610332 503.77997064 C-196.80002235 503.77146551 -201.78372392 503.76929928 -206.76763153 503.78462219 C-211.33609241 503.7984936 -215.90415002 503.79367464 -220.47258772 503.77438296 C-222.11918072 503.77063017 -223.76580621 503.77352399 -225.41237019 503.78399461 C-243.08696612 503.88833568 -257.81181686 499.51317434 -270.9526825 487.20492554 C-282.68435111 474.84598563 -287.74521171 460.88284711 -287.7026825 443.89242554 C-287.73104187 442.83926147 -287.75940125 441.78609741 -287.78862 440.70101929 C-287.80785773 433.11173414 -287.80785773 433.11173414 -284.94877625 429.12289429 C-282.40427026 427.40363349 -280.75403574 426.48237023 -277.7651825 425.95492554 C-277.04459656 425.81441772 -276.32401062 425.67390991 -275.58158875 425.52914429 C-272.77655114 425.22054409 -270.02279553 425.25124713 -267.2026825 425.26742554 C-267.19937235 423.99097577 -267.1960622 422.714526 -267.19265175 421.39939594 C-267.11353982 391.06146093 -267.02428437 360.72357446 -266.92263088 330.38570725 C-266.91011284 326.64714289 -266.89767994 322.90857825 -266.88529968 319.17001343 C-266.88160069 318.05364794 -266.88160069 318.05364794 -266.87782697 316.91472962 C-266.83816305 304.88285183 -266.80538762 292.85096472 -266.77518268 280.81905989 C-266.74400791 268.46228363 -266.70537301 256.10554672 -266.65989244 243.74881476 C-266.63208818 236.13137242 -266.61002044 228.51395867 -266.59541999 220.89647939 C-266.5835767 215.04367744 -266.56132627 209.19094321 -266.5352993 203.33818626 C-266.52626366 200.94578456 -266.52054272 198.55336757 -266.51846886 196.16094971 C-266.47882255 157.3564419 -266.47882255 157.3564419 -252.2026825 142.26742554 C-242.72180915 133.34220778 -232.11862329 129.09659875 -219.19845581 129.14717102 C-218.39789098 129.1463166 -217.59732614 129.14546217 -216.77250177 129.14458185 C-214.09319997 129.14293632 -211.41396094 129.14843326 -208.73466492 129.15390015 C-206.81276959 129.15418224 -204.89087415 129.15402384 -202.96897888 129.15345764 C-197.75248975 129.15317055 -192.53602358 129.15905311 -187.31953979 129.1660316 C-181.86760941 129.17227974 -176.41567852 129.1728701 -170.96374512 129.17405701 C-160.64015208 129.17716601 -150.31656963 129.1853736 -139.99298126 129.1954065 C-128.23976508 129.206581 -116.48654839 129.21208146 -104.73332822 129.21710193 C-80.55644045 129.22755656 -56.37956206 129.24514768 -32.2026825 129.26742554 C-32.21156494 127.97196304 -32.22044739 126.67650055 -32.229599 125.34178162 C-32.31079058 113.11551739 -32.37069883 100.88930808 -32.40993118 88.66283512 C-32.4307792 82.37751566 -32.45904656 76.09241437 -32.50444031 69.80722046 C-32.5479965 63.73826906 -32.57184055 57.66952712 -32.58219147 51.60043144 C-32.58956522 49.28844342 -32.60396441 46.97646647 -32.62560272 44.66456795 C-32.6547658 41.41873796 -32.658633 38.17376647 -32.65678406 34.92782593 C-32.67116516 33.97835587 -32.68554626 33.0288858 -32.70036316 32.05064392 C-32.64329646 22.75316186 -29.41972567 15.82956217 -23.13237 9.05648804 C-16.3044921 2.72618829 -9.26678711 -0.03753812 0 0 Z M-9.2026825 26.26742554 C-10.46633878 28.7947381 -10.33704596 30.54844917 -10.34985352 33.37835693 C-10.35700882 34.4607515 -10.36416412 35.54314606 -10.37153625 36.65834045 C-10.37422516 37.85111099 -10.37691406 39.04388153 -10.37968445 40.27279663 C-10.38625565 41.52487411 -10.39282684 42.7769516 -10.39959717 44.06697083 C-10.41595278 47.5071063 -10.42755911 50.94718024 -10.4358027 54.38734007 C-10.44095176 56.53586411 -10.44702749 58.68438383 -10.45331383 60.83290482 C-10.47236526 67.5530208 -10.48659728 74.2731258 -10.4949258 80.9932636 C-10.50470333 88.75470162 -10.53103616 96.51585484 -10.57142669 104.27719247 C-10.60156474 110.27385114 -10.6163924 116.27042806 -10.61970681 122.26716101 C-10.62205969 125.85002307 -10.63105052 129.43258085 -10.65616798 133.01536179 C-10.68373102 137.01151279 -10.67962475 141.00702545 -10.6726532 145.00326538 C-10.68546326 146.19198746 -10.69827332 147.38070953 -10.71147156 148.60545349 C-10.70452774 149.6934877 -10.69758392 150.78152191 -10.69042969 151.90252686 C-10.69281804 152.84753241 -10.69520639 153.79253796 -10.69766712 154.76618004 C-10.05070457 158.03539705 -8.76105985 159.19760211 -6.2026825 161.26742554 C1.25509227 164.39391589 9.59201768 163.6231483 17.54536438 163.65805054 C18.6739386 163.68125366 19.80251282 163.70445679 20.96528625 163.72836304 C21.98904358 163.73658081 23.0128009 163.74479858 24.06758118 163.75326538 C27.47959622 164.39593631 28.6385903 165.6086682 30.7973175 168.26742554 C31.93887971 170.55054994 31.95066122 171.90221859 32.00263977 174.44174194 C32.0325576 175.73285385 32.0325576 175.73285385 32.06307983 177.05004883 C32.07979233 177.98029877 32.09650482 178.91054871 32.11372375 179.86898804 C32.13450485 180.82058807 32.15528595 181.77218811 32.17669678 182.75262451 C32.24219884 185.79914986 32.30108031 188.84576297 32.3598175 191.89242554 C32.4030021 193.9549347 32.44661637 196.01743491 32.49067688 198.07992554 C32.59788091 203.14233508 32.69914652 208.20483309 32.7973175 213.26742554 C35.80490527 211.51662003 38.61146918 209.7349233 41.29341125 207.51742554 C42.24365173 206.73734131 42.24365173 206.73734131 43.21308899 205.9414978 C43.8802594 205.38905396 44.54742981 204.83661011 45.2348175 204.26742554 C50.35749725 200.06241537 55.50372842 195.89931115 60.7348175 191.82992554 C66.75846935 187.13859438 72.65197738 182.29928816 78.49824524 177.38876343 C79.81481094 176.29224194 81.14571866 175.21268193 82.49127197 174.15193176 C84.82201349 172.30372363 84.82201349 172.30372363 86.90354919 170.21127319 C95.83695706 162.32223793 105.02236635 163.19864033 116.27778625 163.37289429 C118.26072548 163.37299307 120.24366847 163.36912513 122.22659302 163.36149597 C127.42055187 163.35010681 132.61316705 163.38357018 137.80690002 163.42941284 C146.12789945 163.4962148 154.44902879 163.49847013 162.77024269 163.49273109 C165.66421565 163.49780475 168.55736261 163.52464084 171.45117188 163.55458069 C173.23476466 163.56122388 175.01835952 163.56733992 176.80195618 163.57284546 C177.99524033 163.59385063 177.99524033 163.59385063 179.21263123 163.61528015 C184.32240735 163.60864572 189.42853746 163.13603183 193.7973175 160.26742554 C196.40822833 156.77267036 197.17412965 154.24959871 197.19172668 149.92308044 C197.20875137 148.33550179 197.20875137 148.33550179 197.22612 146.71585083 C197.22318939 145.56506042 197.22025879 144.41427002 197.21723938 143.22860718 C197.22570892 142.00856491 197.23417847 140.78852264 197.24290466 139.5315094 C197.26227599 136.19248582 197.26805317 132.85402149 197.26615715 129.5149796 C197.2660373 126.72424845 197.27460729 123.93356936 197.28293467 121.14285272 C197.30215618 114.55746979 197.30505703 107.9722136 197.29829407 101.3868103 C197.29165265 94.60026667 197.31452388 87.81426646 197.3516078 81.02783304 C197.38232528 75.19410929 197.39366269 69.36056017 197.38977098 63.52675718 C197.3877057 60.04556012 197.39314784 56.56478609 197.41766357 53.08366585 C197.44410669 49.20077417 197.43018705 45.31859208 197.41255188 41.43563843 C197.42581512 40.28687225 197.43907837 39.13810608 197.45274353 37.95452881 C197.446588 31.2847982 197.446588 31.2847982 194.38386536 25.56941223 C190.32492452 21.95701906 187.44608752 22.11896364 182.22546387 22.12025452 C181.43507369 22.11657783 180.64468351 22.11290114 179.83034211 22.10911304 C177.16722783 22.09805133 174.50415253 22.09422817 171.84101868 22.09042358 C169.93752925 22.08416086 168.03404105 22.07751423 166.1305542 22.07051086 C160.94868825 22.05308446 155.76683154 22.04254484 150.58494353 22.03430533 C147.34960948 22.02915912 144.11427832 22.02308324 140.8789463 22.0167942 C130.7624603 21.99773836 120.64598162 21.98350753 110.52948111 21.97518224 C98.84015096 21.96540452 87.1510099 21.93907266 75.46174639 21.89868134 C66.43410013 21.86855422 57.40650818 21.85371663 48.37881261 21.85040122 C42.98340527 21.84804702 37.58819985 21.8390385 32.1928463 21.81394005 C27.11784848 21.79071358 22.04318631 21.78640422 16.96814919 21.79670143 C15.10450756 21.79719821 13.24084971 21.79083609 11.3772583 21.77714539 C8.83447439 21.75950887 6.29290585 21.76649137 3.75012207 21.77967834 C3.01120655 21.7687091 2.27229102 21.75773985 1.51098412 21.74643821 C-3.33243393 21.80715525 -5.80485112 22.8217781 -9.2026825 26.26742554 Z M-237.0151825 158.57992554 C-237.55787781 159.11230835 -238.10057312 159.64469116 -238.65971375 160.19320679 C-243.34593601 166.49291318 -243.63122096 172.26838988 -243.56344604 179.86592102 C-243.56600932 180.92137495 -243.56857259 181.97682888 -243.57121354 183.06426626 C-243.57614759 186.59430055 -243.55966426 190.12390538 -243.54325867 193.65390015 C-243.54241232 196.18692006 -243.54288769 198.71994072 -243.54458618 201.25296021 C-243.54526893 206.70299156 -243.53677011 212.15288509 -243.51987267 217.60288811 C-243.49545805 225.48257833 -243.48767488 233.3622165 -243.48390869 241.24194045 C-243.47734806 254.02723915 -243.45739746 266.81248032 -243.42900085 279.5977478 C-243.40145021 292.01506259 -243.38022156 304.43236173 -243.36747742 316.84970093 C-243.36668925 317.61551973 -243.36590108 318.38133853 -243.36508902 319.17036396 C-243.36117382 323.01237573 -243.35738272 326.85438761 -243.35365331 330.69639957 C-243.32256951 362.55345041 -243.2695208 394.41042902 -243.2026825 426.26742554 C-238.5826825 426.26742554 -233.9626825 426.26742554 -229.2026825 426.26742554 C-228.7901825 424.99769897 -228.3776825 423.72797241 -227.9526825 422.41976929 C-218.6783253 394.50953781 -204.05222748 372.22419361 -177.2754364 358.26254272 C-161.79912579 350.58802039 -145.79116439 347.13295828 -128.55815125 347.06430054 C-127.43435562 347.05860046 -126.31056 347.05290039 -125.15270996 347.04702759 C-122.77492709 347.0376026 -120.3971313 347.03105358 -118.01933289 347.02719116 C-114.44023225 347.01756022 -110.8617249 346.98654314 -107.28276062 346.95492554 C-78.15301408 346.81854047 -52.93699959 351.85520055 -30.2026825 371.26742554 C-29.37252625 371.90551147 -28.54237 372.54359741 -27.6870575 373.20101929 C-11.67756993 386.51708677 -3.55759023 407.20270234 2.7973175 426.26742554 C60.2173175 426.26742554 117.6373175 426.26742554 176.7973175 426.26742554 C176.7973175 346.40742554 176.7973175 266.54742554 176.7973175 184.26742554 C139.98405941 178.64529414 139.98405941 178.64529414 96.88716125 190.23617554 C96.21483459 190.80151001 95.54250793 191.36684448 94.84980774 191.9493103 C93.80288757 192.84927734 93.80288757 192.84927734 92.7348175 193.76742554 C91.22550128 195.03826488 89.71506977 196.30778074 88.2035675 197.57601929 C87.45848938 198.20363159 86.71341125 198.8312439 85.945755 199.47787476 C82.92526346 201.99380692 79.83935023 204.41903028 76.7348175 206.82992554 C71.75258586 210.71365051 66.82143799 214.65432794 61.9223175 218.64242554 C61.25812805 219.18286499 60.5939386 219.72330444 59.90962219 220.28012085 C56.47205629 223.08030128 53.04059981 225.88776897 49.61372375 228.70101929 C46.28865711 231.42792579 42.94716383 234.13325552 39.59126282 236.82211304 C38.44655576 237.74435933 37.30726301 238.67339482 36.17524719 239.61117554 C30.86684322 244.00339084 26.87573045 247.24869599 19.76997375 246.74398804 C17.46697965 246.18762114 15.80282982 245.5455977 13.7973175 244.26742554 C11.0668414 237.65022798 11.46300909 229.61599133 11.383255 222.57211304 C11.35420578 220.96192795 11.35420578 220.96192795 11.3245697 219.31921387 C11.26530717 215.92702918 11.21860359 212.53480956 11.1723175 209.14242554 C11.13408857 206.82730746 11.09503407 204.51220285 11.05513 202.19711304 C10.95965021 196.55400446 10.87445049 190.91081314 10.7973175 185.26742554 C10.16229309 185.18832947 9.52726868 185.1092334 8.8730011 185.02774048 C5.97176661 184.66204365 3.07209113 184.28514909 0.1723175 183.90805054 C-0.82670593 183.78381714 -1.82572937 183.65958374 -2.85502625 183.53158569 C-12.28204689 182.29077751 -19.96588672 180.08568218 -25.960495 172.27914429 C-29.17946291 167.06603586 -30.95438911 161.54020052 -32.25639343 155.59115601 C-32.52319916 154.37636063 -32.52319916 154.37636063 -32.7953949 153.13702393 C-32.9297998 152.52005646 -33.06420471 151.90308899 -33.2026825 151.26742554 C-58.09817017 151.17396256 -82.99363153 151.10343662 -107.88925934 151.06017685 C-119.44887153 151.03955624 -131.00837467 151.01144506 -142.56791687 150.96566772 C-152.64382771 150.9257848 -162.71965957 150.89998909 -172.79564714 150.89107156 C-178.13027251 150.88585932 -183.46467194 150.87361881 -188.79922485 150.84450531 C-193.82248186 150.81731337 -198.84542028 150.80898825 -203.8687439 150.81499481 C-205.71016675 150.81389627 -207.55160049 150.80596498 -209.39295959 150.79060364 C-211.9128889 150.77061627 -214.43162528 150.77551772 -216.95158386 150.78640747 C-218.03722287 150.76893042 -218.03722287 150.76893042 -219.14479399 150.7511003 C-226.08692411 150.831844 -232.13376541 153.60349303 -237.0151825 158.57992554 Z M-188.2026825 393.26742554 C-188.87041687 393.91324585 -189.53815125 394.55906616 -190.22612 395.22445679 C-194.11583618 399.26377744 -196.83353158 403.8179855 -199.5151825 408.70492554 C-199.85323914 409.3136853 -200.19129578 409.92244507 -200.53959656 410.5496521 C-202.33988027 413.98423591 -203.51060271 417.20728368 -204.30888367 421.00985718 C-204.56432198 422.21032433 -204.56432198 422.21032433 -204.82492065 423.43504333 C-205.01191277 424.34207253 -205.01191277 424.34207253 -205.2026825 425.26742554 C-176.14825404 426.3200354 -147.10697171 426.42415845 -118.03593445 426.39779663 C-111.65501432 426.39208463 -105.27413581 426.39548879 -98.89321709 426.40124893 C-72.98146564 426.42096209 -47.09362313 426.41292699 -21.2026825 425.26742554 C-22.02568949 420.0654361 -23.39843612 416.17568618 -25.7651825 411.51742554 C-26.12088318 410.81367798 -26.47658386 410.10993042 -26.84306335 409.38485718 C-29.960453 403.40317288 -33.63934933 398.24729013 -38.2026825 393.26742554 C-39.04766296 392.3199646 -39.04766296 392.3199646 -39.90971375 391.35336304 C-53.3123396 377.10326435 -73.1295672 369.01528334 -92.51153564 368.16629028 C-95.03533293 368.11989288 -97.55736616 368.10267039 -100.08158875 368.09945679 C-101.01132004 368.09612839 -101.94105133 368.09279999 -102.8989563 368.08937073 C-104.85964976 368.08433149 -106.82035171 368.08196147 -108.78105164 368.0821228 C-111.73229187 368.07994976 -114.68314949 368.06179873 -117.63432312 368.04281616 C-145.07648821 367.95882488 -168.37332061 373.23333573 -188.2026825 393.26742554 Z M-266.2026825 448.26742554 C-263.23878156 460.12302928 -259.89820929 469.1417736 -249.40866953 475.950562 C-240.08124564 481.5185659 -231.23240574 481.83895623 -220.62286377 481.77536011 C-218.9432736 481.77997396 -217.26368747 481.78633012 -215.58410972 481.79426908 C-210.98738863 481.8109192 -206.39100105 481.80273572 -201.79427898 481.79032421 C-196.82962182 481.78125827 -191.86502122 481.79525116 -186.90037537 481.8062439 C-177.18172155 481.82401759 -167.4631914 481.82019412 -157.74453277 481.80859333 C-149.84439721 481.79955426 -141.94429628 481.79833707 -134.04415703 481.8026886 C-132.91911585 481.80330153 -131.79407468 481.80391446 -130.63494135 481.80454597 C-128.34932072 481.80582489 -126.06370011 481.80712175 -123.7780795 481.80843633 C-102.35230345 481.8198389 -80.92659588 481.80673375 -59.50083106 481.78523487 C-41.12463981 481.76736663 -22.74854965 481.77046639 -4.37236023 481.78890991 C16.97598833 481.81032651 38.32427686 481.81873773 59.67263466 481.80646086 C61.95008186 481.80518669 64.22752906 481.8039292 66.50497627 481.8026886 C67.62547144 481.8020715 68.74596661 481.80145439 69.90041618 481.80081859 C77.78869176 481.79736789 85.67692922 481.80318808 93.5651989 481.81260681 C103.18186088 481.82383703 112.79839229 481.82076527 122.41503935 481.79948384 C127.31971502 481.78898688 132.22417317 481.7848285 137.12884712 481.79808044 C141.62261934 481.81003832 146.11597332 481.80338597 150.60970784 481.78217024 C152.23139323 481.77771851 153.85311428 481.77993817 155.47477656 481.78967339 C168.10521191 481.85965394 179.26479146 480.33903824 188.7973175 471.26742554 C194.96689516 464.49663614 198.29884649 457.25825162 199.7973175 448.26742554 C46.0173175 448.26742554 -107.7626825 448.26742554 -266.2026825 448.26742554 Z " fill="#282828" transform="translate(289.2026824951172,1.732574462890625)"/>
<path d="M0 0 C1.23314106 -0.00679667 1.23314106 -0.00679667 2.49119407 -0.01373065 C5.24392724 -0.02638346 7.99646278 -0.02475369 10.7492218 -0.02310181 C12.7238592 -0.02908661 14.69849425 -0.03589205 16.67312622 -0.04345703 C22.03697938 -0.06113179 27.40076873 -0.06581311 32.7646482 -0.0670886 C36.11746684 -0.06851024 39.47026926 -0.07278013 42.82308388 -0.07808304 C54.52503616 -0.09659011 66.22694287 -0.10475304 77.9289093 -0.10317993 C88.82782783 -0.10197923 99.72654809 -0.12306592 110.62541646 -0.15466726 C119.98866286 -0.18084615 129.35184458 -0.19154651 138.71512729 -0.19026911 C144.304578 -0.18975984 149.89385264 -0.19542374 155.48326683 -0.21662521 C160.74382695 -0.23603394 166.00404356 -0.23611389 171.26461601 -0.22159195 C173.19065606 -0.21950584 175.11671775 -0.22419286 177.04272079 -0.23631287 C190.48614179 -0.31540005 200.60321961 0.37345673 210.81684875 10.04476929 C216.34655501 16.25069209 218.90853996 22.56788976 218.94448853 30.81300354 C218.95522148 32.50560806 218.95522148 32.50560806 218.96617126 34.23240662 C218.96886017 35.46623581 218.97154907 36.700065 218.97431946 37.97128296 C218.98089066 39.27414246 218.98746185 40.57700195 218.99423218 41.91934204 C219.01523236 46.23718035 219.02563173 50.55501884 219.03559875 54.87289429 C219.03964802 56.36228262 219.04376499 57.85167077 219.04794884 59.34105873 C219.06699274 66.34042684 219.08122466 73.33978447 219.08956081 80.3391735 C219.09932636 88.40446962 219.12563119 96.46949079 219.1660617 104.53469008 C219.19627806 110.77774951 219.21103495 117.02073037 219.21434182 123.26386148 C219.21668628 126.98825408 219.2255672 130.71235269 219.25080299 134.43666649 C219.27853717 138.59681716 219.27423578 142.75635805 219.26728821 146.91659546 C219.2865033 148.75215752 219.2865033 148.75215752 219.30610657 150.62480164 C219.24650629 160.43114348 217.13414979 167.38672822 210.3598175 174.64242554 C209.61860657 175.45453491 208.87739563 176.26664429 208.11372375 177.10336304 C205.81334162 179.25245528 203.50076498 180.68152668 200.7973175 182.26742554 C200.4673175 182.92742554 200.1373175 183.58742554 199.7973175 184.26742554 C191.51070694 184.42686477 183.2239922 184.58012886 174.9372139 184.73058319 C172.93145498 184.76725846 170.92571043 184.80464688 168.91996765 184.8421936 C142.70899902 185.33036818 142.70899902 185.33036818 130.62153625 185.22836304 C129.82368713 185.22246155 129.02583801 185.21656006 128.20381165 185.21047974 C124.65554396 185.18086383 121.10900327 185.13259116 117.56147766 185.05453491 C106.43453272 184.91878648 101.09331261 187.58218797 92.7348175 194.76742554 C91.22550128 196.03826488 89.71506977 197.30778074 88.2035675 198.57601929 C87.45848938 199.20363159 86.71341125 199.8312439 85.945755 200.47787476 C82.92526346 202.99380692 79.83935023 205.41903028 76.7348175 207.82992554 C71.75258586 211.71365051 66.82143799 215.65432794 61.9223175 219.64242554 C60.92603333 220.45308472 60.92603333 220.45308472 59.90962219 221.28012085 C56.47205629 224.08030128 53.04059981 226.88776897 49.61372375 229.70101929 C46.28865711 232.42792579 42.94716383 235.13325552 39.59126282 237.82211304 C38.44655576 238.74435933 37.30726301 239.67339482 36.17524719 240.61117554 C27.59219348 247.71286187 27.59219348 247.71286187 21.9223175 247.95492554 C18.18058028 247.53322707 15.49136181 247.04310755 12.7973175 244.26742554 C10.54554997 237.19965228 10.52771686 229.91417351 10.602005 222.57211304 C10.6048349 221.49865631 10.60766479 220.42519958 10.61058044 219.31921387 C10.62167929 215.92683249 10.64676436 212.53472567 10.6723175 209.14242554 C10.68236062 206.82732521 10.69148413 204.5122207 10.69966125 202.19711304 C10.72158478 196.55379189 10.75495818 190.91062834 10.7973175 185.26742554 C9.6346637 185.20901489 8.47200989 185.15060425 7.27412415 185.09042358 C5.73106162 185.0077281 4.18801215 184.92478878 2.64497375 184.84164429 C1.88076111 184.80389893 1.11654846 184.76615356 0.32917786 184.7272644 C-9.28446707 184.19733775 -17.16883143 182.18026411 -24.2026825 175.26742554 C-32.28056941 165.87069994 -33.67916181 155.16700791 -33.39506531 143.15438843 C-33.36751482 140.8468638 -33.3400512 138.53933814 -33.31266785 136.23181152 C-33.29329666 135.06974812 -33.27392548 133.90768471 -33.25396729 132.71040726 C-33.17506884 127.41359502 -33.17871917 122.11721069 -33.17436218 116.81991577 C-33.14413638 106.7223006 -33.08594302 96.62484958 -33.01877975 86.52741909 C-32.97895967 80.47793221 -32.94689957 74.42860072 -32.9316864 68.3789978 C-32.91652623 62.44848477 -32.88215057 56.51836676 -32.83437347 50.58802986 C-32.81961907 48.34867844 -32.81164492 46.10927101 -32.81079865 43.86987114 C-32.80842721 40.75122472 -32.78135351 37.63368331 -32.74858093 34.51522827 C-32.7536113 33.60660538 -32.75864166 32.69798248 -32.76382446 31.76182556 C-32.61579402 22.6297991 -29.3037876 15.70466752 -23.13237 9.05648804 C-16.3044921 2.72618829 -9.26678711 -0.03753812 0 0 Z M-9.2026825 26.26742554 C-10.46633878 28.7947381 -10.33704596 30.54844917 -10.34985352 33.37835693 C-10.35700882 34.4607515 -10.36416412 35.54314606 -10.37153625 36.65834045 C-10.37422516 37.85111099 -10.37691406 39.04388153 -10.37968445 40.27279663 C-10.38625565 41.52487411 -10.39282684 42.7769516 -10.39959717 44.06697083 C-10.41595278 47.5071063 -10.42755911 50.94718024 -10.4358027 54.38734007 C-10.44095176 56.53586411 -10.44702749 58.68438383 -10.45331383 60.83290482 C-10.47236526 67.5530208 -10.48659728 74.2731258 -10.4949258 80.9932636 C-10.50470333 88.75470162 -10.53103616 96.51585484 -10.57142669 104.27719247 C-10.60156474 110.27385114 -10.6163924 116.27042806 -10.61970681 122.26716101 C-10.62205969 125.85002307 -10.63105052 129.43258085 -10.65616798 133.01536179 C-10.68373102 137.01151279 -10.67962475 141.00702545 -10.6726532 145.00326538 C-10.68546326 146.19198746 -10.69827332 147.38070953 -10.71147156 148.60545349 C-10.70452774 149.6934877 -10.69758392 150.78152191 -10.69042969 151.90252686 C-10.69281804 152.84753241 -10.69520639 153.79253796 -10.69766712 154.76618004 C-10.05070457 158.03539705 -8.76105985 159.19760211 -6.2026825 161.26742554 C1.25509227 164.39391589 9.59201768 163.6231483 17.54536438 163.65805054 C18.6739386 163.68125366 19.80251282 163.70445679 20.96528625 163.72836304 C21.98904358 163.73658081 23.0128009 163.74479858 24.06758118 163.75326538 C27.47959622 164.39593631 28.6385903 165.6086682 30.7973175 168.26742554 C31.93887971 170.55054994 31.95066122 171.90221859 32.00263977 174.44174194 C32.0325576 175.73285385 32.0325576 175.73285385 32.06307983 177.05004883 C32.07979233 177.98029877 32.09650482 178.91054871 32.11372375 179.86898804 C32.13450485 180.82058807 32.15528595 181.77218811 32.17669678 182.75262451 C32.24219884 185.79914986 32.30108031 188.84576297 32.3598175 191.89242554 C32.4030021 193.9549347 32.44661637 196.01743491 32.49067688 198.07992554 C32.59788091 203.14233508 32.69914652 208.20483309 32.7973175 213.26742554 C35.80490527 211.51662003 38.61146918 209.7349233 41.29341125 207.51742554 C42.24365173 206.73734131 42.24365173 206.73734131 43.21308899 205.9414978 C43.8802594 205.38905396 44.54742981 204.83661011 45.2348175 204.26742554 C50.35749725 200.06241537 55.50372842 195.89931115 60.7348175 191.82992554 C66.75846935 187.13859438 72.65197738 182.29928816 78.49824524 177.38876343 C79.81481094 176.29224194 81.14571866 175.21268193 82.49127197 174.15193176 C84.82201349 172.30372363 84.82201349 172.30372363 86.90354919 170.21127319 C95.83695706 162.32223793 105.02236635 163.19864033 116.27778625 163.37289429 C118.26072548 163.37299307 120.24366847 163.36912513 122.22659302 163.36149597 C127.42055187 163.35010681 132.61316705 163.38357018 137.80690002 163.42941284 C146.12789945 163.4962148 154.44902879 163.49847013 162.77024269 163.49273109 C165.66421565 163.49780475 168.55736261 163.52464084 171.45117188 163.55458069 C173.23476466 163.56122388 175.01835952 163.56733992 176.80195618 163.57284546 C177.99524033 163.59385063 177.99524033 163.59385063 179.21263123 163.61528015 C184.32240735 163.60864572 189.42853746 163.13603183 193.7973175 160.26742554 C196.40822833 156.77267036 197.17412965 154.24959871 197.19172668 149.92308044 C197.20875137 148.33550179 197.20875137 148.33550179 197.22612 146.71585083 C197.22318939 145.56506042 197.22025879 144.41427002 197.21723938 143.22860718 C197.22570892 142.00856491 197.23417847 140.78852264 197.24290466 139.5315094 C197.26227599 136.19248582 197.26805317 132.85402149 197.26615715 129.5149796 C197.2660373 126.72424845 197.27460729 123.93356936 197.28293467 121.14285272 C197.30215618 114.55746979 197.30505703 107.9722136 197.29829407 101.3868103 C197.29165265 94.60026667 197.31452388 87.81426646 197.3516078 81.02783304 C197.38232528 75.19410929 197.39366269 69.36056017 197.38977098 63.52675718 C197.3877057 60.04556012 197.39314784 56.56478609 197.41766357 53.08366585 C197.44410669 49.20077417 197.43018705 45.31859208 197.41255188 41.43563843 C197.42581512 40.28687225 197.43907837 39.13810608 197.45274353 37.95452881 C197.446588 31.2847982 197.446588 31.2847982 194.38386536 25.56941223 C190.32492452 21.95701906 187.44608752 22.11896364 182.22546387 22.12025452 C181.43507369 22.11657783 180.64468351 22.11290114 179.83034211 22.10911304 C177.16722783 22.09805133 174.50415253 22.09422817 171.84101868 22.09042358 C169.93752925 22.08416086 168.03404105 22.07751423 166.1305542 22.07051086 C160.94868825 22.05308446 155.76683154 22.04254484 150.58494353 22.03430533 C147.34960948 22.02915912 144.11427832 22.02308324 140.8789463 22.0167942 C130.7624603 21.99773836 120.64598162 21.98350753 110.52948111 21.97518224 C98.84015096 21.96540452 87.1510099 21.93907266 75.46174639 21.89868134 C66.43410013 21.86855422 57.40650818 21.85371663 48.37881261 21.85040122 C42.98340527 21.84804702 37.58819985 21.8390385 32.1928463 21.81394005 C27.11784848 21.79071358 22.04318631 21.78640422 16.96814919 21.79670143 C15.10450756 21.79719821 13.24084971 21.79083609 11.3772583 21.77714539 C8.83447439 21.75950887 6.29290585 21.76649137 3.75012207 21.77967834 C3.01120655 21.7687091 2.27229102 21.75773985 1.51098412 21.74643821 C-3.33243393 21.80715525 -5.80485112 22.8217781 -9.2026825 26.26742554 Z " fill="#FD0029" transform="translate(289.2026824951172,1.732574462890625)"/>
<path d="M0 0 C15.41573482 12.99758034 25.80618022 29.79532872 27.58984375 50.18359375 C29.24763945 78.57334517 18.98748375 104.6332652 0.1796875 125.91015625 C-9.88879345 136.47328523 -23.71640637 145.85720942 -38.703125 146.38671875 C-57.41380504 146.68813468 -70.16029671 141.64302343 -84.41015625 129.18359375 C-85.02503906 128.6525 -85.63992187 128.12140625 -86.2734375 127.57421875 C-103.55596911 111.52331583 -114.14890249 85.16961493 -115.61328125 61.96484375 C-115.91666323 40.72810498 -109.41283741 21.56052296 -94.78515625 5.99609375 C-68.86351682 -18.65720858 -28.68003032 -22.27861386 0 0 Z M-80.41015625 23.18359375 C-89.86759988 34.3821567 -94.09864965 47.17977826 -93.1875 61.7421875 C-90.83850616 83.65852807 -81.53373597 101.53865595 -65.24609375 116.12109375 C-63.3593941 117.62444009 -61.47081389 118.93144364 -59.41015625 120.18359375 C-58.73855469 120.59351563 -58.06695312 121.0034375 -57.375 121.42578125 C-50.94280628 124.81114636 -44.54131801 125.33456004 -37.41015625 124.18359375 C-20.59863046 118.68536746 -10.19597968 105.43898054 -2.41015625 90.18359375 C4.80766075 75.53088254 8.50085049 59.34728797 3.90234375 43.30859375 C-1.01596908 29.29054534 -9.12352946 19.13379934 -22.41015625 12.18359375 C-42.40982661 3.43373797 -65.14526308 6.5970648 -80.41015625 23.18359375 Z " fill="#282828" transform="translate(221.41015625,193.81640625)"/>
<path d="M0 0 C0.93714844 -0.01611328 1.87429688 -0.03222656 2.83984375 -0.04882812 C11.56992484 -0.05501967 11.56992484 -0.05501967 15.5 3.3125 C17.8770815 7.29986252 18.64226154 9.37989659 17.9375 14 C16.49228417 17.33027995 15.33019865 19.08264652 12.5 21.3125 C8.37580148 22.68723284 4.50748491 22.53641707 0.1875 22.5625 C-0.65490234 22.583125 -1.49730469 22.60375 -2.36523438 22.625 C-8.39417846 22.66271036 -12.73602807 21.80007474 -17.375 17.625 C-19.03414968 14.21452566 -19.03375622 10.99029973 -18.5 7.3125 C-17.25034188 4.28701192 -16.39073554 2.81920585 -13.54296875 1.19921875 C-9.03489456 -0.1144306 -4.67128973 -0.01606358 0 0 Z " fill="#FF002A" transform="translate(382.5,82.6875)"/>
<path d="M0 0 C0.89396484 -0.01224609 1.78792969 -0.02449219 2.70898438 -0.03710938 C11.09181733 -0.05577938 11.09181733 -0.05577938 15.0625 2.1875 C18.05275865 5.69332048 18.55025422 8.79711055 18.33984375 13.2578125 C17.90536082 16.28083459 17.12351511 17.92703182 15.0625 20.1875 C10.06965442 21.96620124 5.38832042 22.54225287 0.125 22.5 C-0.5757666 22.49653564 -1.2765332 22.49307129 -1.99853516 22.48950195 C-7.33554349 22.37715042 -11.25410708 21.71653218 -15.9375 19.1875 C-18.76671237 14.94368144 -18.58918699 11.17052125 -17.9375 6.1875 C-16.27336777 3.2752686 -15.30689947 1.63855598 -12.08374023 0.5769043 C-8.08414442 -0.14876461 -4.053498 0.00290991 0 0 Z " fill="#FF002A" transform="translate(434.9375,82.8125)"/>
<path d="M0 0 C1.33417969 -0.02416992 1.33417969 -0.02416992 2.6953125 -0.04882812 C7.59171587 -0.05248216 11.07830136 0.04186461 15 3.3125 C17.95592813 7.7463922 17.77957615 12.1127271 17 17.3125 C14.15277461 20.54448558 11.36084513 22.14148675 6.99462891 22.45776367 C4.5379462 22.48235694 2.08181517 22.49815554 -0.375 22.5 C-1.22578125 22.51224609 -2.0765625 22.52449219 -2.953125 22.53710938 C-7.36388401 22.54741489 -11.06255174 22.54848878 -15 20.3125 C-17.52708329 17.30731988 -18.85246032 15.19773808 -19.5 11.3125 C-18.85246032 7.42726192 -17.52708329 5.31768012 -15 2.3125 C-10.2934015 -0.37308329 -5.26235544 -0.01906651 0 0 Z " fill="#FF002A" transform="translate(330,82.6875)"/>
</svg>
