<?xml version="1.0" encoding="UTF-8"?>
<svg version="1.1" xmlns="http://www.w3.org/2000/svg" width="513" height="513">
<path d="M0 0 C1.02351562 -0.020625 2.04703125 -0.04125 3.1015625 -0.0625 C12.57527076 -0.11184223 12.57527076 -0.11184223 16.375 3.25 C20.33734558 7.48214452 22.07813394 10.38100507 23.27929688 16.17504883 C23.49604065 17.18143056 23.49604065 17.18143056 23.71716309 18.20814323 C24.19256365 20.43380078 24.64292315 22.66377787 25.09375 24.89453125 C25.43023015 26.49132696 25.76853198 28.08773973 26.10852051 29.68379211 C26.83306169 33.0946991 27.54841402 36.50736046 28.2578125 39.92144775 C29.3722088 45.26428428 30.53198358 50.59659642 31.703125 55.92724609 C33.50809938 64.14599579 35.29730607 72.36794991 37.0718689 80.59332085 C38.08398374 85.28334995 39.09979828 89.97251125 40.12402344 94.65991211 C41.1399504 99.30973013 42.14679205 103.96142919 43.14723206 108.61460304 C43.52360765 110.35787245 43.90311668 112.10046875 44.28599548 113.8423214 C44.81591621 116.2559678 45.33407963 118.67186798 45.84960938 121.08862305 C46.08322678 122.13344345 46.08322678 122.13344345 46.32156372 123.19937134 C47.66746629 129.61781803 48.78299036 136.28210101 45.46606445 142.203125 C41.86206972 147.31781069 37.36769384 151.62937645 32.91796875 156 C32.01500565 156.89871826 31.11204254 157.79743652 30.18171692 158.72338867 C27.80167889 161.0895588 25.4153671 163.44900663 23.02563477 165.80535889 C20.5799304 168.22015017 18.14289658 170.64365869 15.70507812 173.06640625 C10.93626153 177.80226886 6.15896951 182.52944734 1.375 187.25 C3.08866356 192.65507607 5.38462813 197.30954964 8.125 202.25 C8.60670654 203.11939209 9.08841309 203.98878418 9.5847168 204.88452148 C21.60389176 226.29290099 35.51233142 246.50834175 51.375 265.25 C52.23238666 266.28073806 53.08912505 267.3120156 53.9453125 268.34375 C63.02545764 279.24090545 72.62046304 289.57157525 82.625 299.625 C83.27428467 300.27895752 83.92356934 300.93291504 84.5925293 301.60668945 C89.02328101 306.02281637 93.62993516 310.17551459 98.375 314.25 C99.33921875 315.095625 100.3034375 315.94125 101.296875 316.8125 C122.35062742 334.95827557 145.36493538 350.32465808 169.375 364.25 C170.50156006 364.90983887 170.50156006 364.90983887 171.65087891 365.58300781 C173.7150694 366.78353768 175.79111025 367.95907884 177.875 369.125 C178.47981201 369.47723633 179.08462402 369.82947266 179.70776367 370.19238281 C181.57021899 371.25552557 181.57021899 371.25552557 184.375 372.25 C187.81542389 371.03221225 189.96176431 368.88636903 192.48168945 366.30688477 C193.67862175 365.09035973 193.67862175 365.09035973 194.8997345 363.84925842 C195.75395493 362.97216721 196.60817535 362.09507599 197.48828125 361.19140625 C199.31156914 359.34282293 201.13514589 357.49452447 202.95898438 355.64648438 C205.82759275 352.7304629 208.69118611 349.80959777 211.54956055 346.88354492 C214.31008595 344.05887879 217.08676339 341.25035504 219.86328125 338.44140625 C221.13550285 337.12880577 221.13550285 337.12880577 222.4334259 335.78968811 C227.9032801 330.2740548 231.82916451 326.50823937 239.86576843 326.05169678 C245.3525365 326.12536664 250.58459122 327.33806868 255.92822266 328.49731445 C257.06092087 328.73633484 258.19361908 328.97535522 259.36064148 329.22161865 C263.08857687 330.01064485 266.81384115 330.81154682 270.5390625 331.61328125 C273.13632342 332.16707784 275.73368355 332.7203915 278.33114624 333.27323914 C283.76760753 334.43173446 289.20256495 335.59708982 294.63671875 336.76635742 C300.90807929 338.11565789 307.18187934 339.45311382 313.45707095 340.78447372 C318.8590092 341.93089045 324.25954633 343.08373606 329.65897596 344.24191064 C332.87768101 344.93231389 336.09694241 345.61986824 339.31721878 346.30291176 C342.90676079 347.06550171 346.49388218 347.83859806 350.08056641 348.61450195 C351.670411 348.94897591 351.670411 348.94897591 353.29237366 349.29020691 C361.15834824 351.0097093 366.92449726 353.02085401 372.375 359.25 C376.64906313 372.07218938 373.50679295 389.3274315 370.375 402.25 C370.14151855 403.25691895 370.14151855 403.25691895 369.90332031 404.28417969 C361.43761281 439.78607883 337.67997723 470.93002741 307.25585938 490.62158203 C293.56823501 499.00541475 278.85982016 505.10005308 263.375 509.25 C262.18777344 509.57226562 261.00054687 509.89453125 259.77734375 510.2265625 C196.01716341 524.33688162 130.4312955 487.34120691 78.46435547 454.40527344 C60.54461671 442.88251956 43.49046496 430.2483685 27.08984375 416.66064453 C25.57287009 415.41276956 24.03771117 414.18707342 22.5 412.96484375 C9.22706744 402.39785131 -2.69007651 390.27623393 -14.6875 378.3125 C-15.22820129 377.77447754 -15.76890259 377.23645508 -16.32598877 376.68212891 C-22.31115823 370.71947633 -28.16920444 364.70823512 -33.625 358.25 C-34.50184603 357.24022658 -35.37940622 356.23107269 -36.2578125 355.22265625 C-43.11923936 347.21048853 -49.59289762 338.94801242 -55.92480469 330.51220703 C-57.05952676 329.00239446 -58.1982152 327.49555484 -59.34082031 325.99169922 C-92.50011836 282.3378859 -120.37198661 231.12305373 -135.625 178.25 C-135.8297998 177.54713867 -136.03459961 176.84427734 -136.24560547 176.12011719 C-142.06635953 154.87890816 -140.62120446 127.20443165 -134.625 106.25 C-134.38894043 105.42435547 -134.15288086 104.59871094 -133.90966797 103.74804688 C-122.64671183 65.89986674 -97.03052463 35.18868089 -62.625 16.25 C-43.20211833 5.90423753 -22.03394455 0.11184743 0 0 Z M-8.625 33.25 C-35.69485456 35.86735018 -60.89472271 50.7472971 -78.84375 70.71875 C-97.76156533 93.71117171 -108.64410807 122.4538025 -106.18066406 152.38525391 C-103.45652154 179.57744765 -91.2857626 204.85587417 -79.625 229.25 C-79.22877441 230.09159668 -78.83254883 230.93319336 -78.42431641 231.80029297 C-68.63907143 252.5251522 -56.75823686 272.47533838 -43.625 291.25 C-43.2424707 291.80300781 -42.85994141 292.35601562 -42.46582031 292.92578125 C-29.08383991 312.24913884 -14.20178257 330.38036051 1.81347656 347.57080078 C3.58713679 349.47812333 5.35178888 351.39362292 7.1171875 353.30859375 C8.43189638 354.726929 9.74699776 356.14490055 11.0625 357.5625 C11.97092651 358.54935791 11.97092651 358.54935791 12.89770508 359.55615234 C16.55277739 363.47622855 20.3581877 367.07601892 24.42651367 370.56420898 C27.43012301 373.16287112 30.29846274 375.90058619 33.1875 378.625 C39.05291378 384.10141305 45.07044625 389.280339 51.375 394.25 C51.98730469 394.74016602 52.59960938 395.23033203 53.23046875 395.73535156 C101.17560379 434.10537017 174.99461054 485.66704039 239.91943359 479.80078125 C269.18628476 476.54668616 295.95182277 462.37350218 315.19140625 440.02734375 C327.81723526 423.9683734 337.39623958 405.62098331 339.90383911 385.10484314 C340.0593222 383.8327449 340.2148053 382.56064667 340.375 381.25 C329.23972948 378.39909355 318.0687255 375.79577149 306.8359375 373.359375 C305.21407227 373.00640722 303.59221576 372.65339939 301.97036743 372.300354 C298.60776284 371.56913795 295.2446978 370.84008324 291.88134766 370.11230469 C287.58089748 369.18131323 283.28226772 368.24217927 278.98399925 367.30117416 C275.65115296 366.57292636 272.31711271 365.85026853 268.98271561 365.12915802 C267.39630822 364.78511799 265.81033862 364.43905248 264.22483444 364.09087372 C262.01618976 363.6064482 259.80597839 363.12992121 257.59521484 362.65527344 C255.71568619 362.24701324 255.71568619 362.24701324 253.79818726 361.83050537 C250.46910355 361.26595812 247.72917094 360.83840276 244.375 361.25 C241.82244354 362.95724498 241.82244354 362.95724498 239.55053711 365.44091797 C238.64617416 366.35541718 237.74181122 367.26991638 236.81004333 368.21212769 C235.8407197 369.22206083 234.87148876 370.23208294 233.90234375 371.2421875 C232.89310997 372.27024564 231.88230654 373.29676501 230.87001038 374.32180786 C228.21053951 377.02114282 225.56828195 379.73666063 222.93060303 382.45727539 C218.70930776 386.80802308 214.46777305 391.13880056 210.2161274 395.4598732 C208.73701221 396.96956083 207.26861899 398.48911465 205.80101013 400.00997925 C204.89979935 400.93078278 203.99858856 401.8515863 203.07006836 402.80029297 C202.28208359 403.6130368 201.49409882 404.42578064 200.68223572 405.26315308 C196.85589129 408.5581613 192.90398797 409.85966684 187.82421875 409.671875 C160.69211916 404.9984033 131.06518379 381.20803082 109.375 365.25 C108.33601562 364.49460937 107.29703125 363.73921875 106.2265625 362.9609375 C94.68875382 354.45451019 83.49396733 345.43311762 73 335.6640625 C70.93759461 333.76738612 68.8483145 331.93676917 66.72265625 330.11328125 C61.52303585 325.57840237 56.67870057 320.69954083 51.8125 315.8125 C50.90564453 314.90951172 49.99878906 314.00652344 49.06445312 313.07617188 C43.95856687 307.96288041 39.0524966 302.75689901 34.375 297.25 C33.49787011 296.24047314 32.62029774 295.23133049 31.7421875 294.22265625 C-34.84192098 216.47162049 -34.84192098 216.47162049 -36.125 183.9375 C-35.28292771 177.72721688 -32.61789557 173.85258077 -28.13769531 169.59667969 C-27.23376038 168.72847595 -26.32982544 167.86027222 -25.39849854 166.96575928 C-24.91832527 166.51091911 -24.43815201 166.05607895 -23.94342804 165.58745575 C-22.42946335 164.14939972 -20.92907147 162.6984304 -19.43206787 161.24273682 C-15.17840724 157.10760148 -10.91585549 152.98259633 -6.61083984 148.90087891 C-3.97047567 146.39561033 -1.3580773 143.86391903 1.2385025 141.3133316 C2.22852393 140.3510516 3.22852528 139.39892447 4.23860931 138.45772552 C9.76740794 133.53326738 9.76740794 133.53326738 12.88267517 127.04418945 C12.69212962 124.31656615 12.07537526 121.89626308 11.375 119.25 C11.0952747 117.88534733 10.82544062 116.51864752 10.56295776 115.15057373 C9.57997028 110.07502169 8.49692415 105.02293494 7.41015625 99.96875 C7.01255353 98.10458805 6.61521384 96.24036998 6.21812439 94.37609863 C5.38874891 90.48886913 4.55526153 86.60254929 3.71899414 82.71679688 C2.64641137 77.73070327 1.58570444 72.74216636 0.52817631 67.75286102 C-0.28754095 63.91198207 -1.11019361 60.07261401 -1.93490791 56.23365784 C-2.32915565 54.39369713 -2.721055 52.55323163 -3.11057854 50.71226501 C-3.65371838 48.14967468 -4.20632118 45.58930738 -4.76147461 43.02929688 C-5.00080215 41.88545532 -5.00080215 41.88545532 -5.2449646 40.71850586 C-6.10728213 36.56792108 -6.10728213 36.56792108 -8.625 33.25 Z " fill="#282828" transform="translate(138.625,-0.25)"/>
<path d="M0 0 C1.29462158 0.01466309 2.58924316 0.02932617 3.9230957 0.04443359 C55.64240429 1.04374828 106.69224988 19.9222909 147.5625 51.4375 C148.3978125 52.08074219 149.233125 52.72398438 150.09375 53.38671875 C168.02430244 67.47105701 185.31190489 83.8143337 198.5625 102.4375 C199.00851562 103.05512207 199.45453125 103.67274414 199.9140625 104.30908203 C222.73908667 136.05212367 238.66434837 171.86212205 245.5625 210.4375 C245.72331055 211.32856445 245.88412109 212.21962891 246.04980469 213.13769531 C248.10743137 225.06344501 248.86947309 236.90324873 249 249 C249.02231689 250.24338135 249.04463379 251.4867627 249.06762695 252.76782227 C249.04009866 263.58197558 249.04009866 263.58197558 244.5625 268.4375 C240.74319828 272.06583663 237.67970994 272.74750458 232.5625 272.9375 C227.44529006 272.74750458 224.38180172 272.06583663 220.5625 268.4375 C216.96509519 263.85978253 216.01139412 260.63823289 215.69140625 254.85546875 C215.59414439 253.36327145 215.49672603 251.87108434 215.39916992 250.37890625 C215.35504974 249.60305176 215.31092957 248.82719727 215.26547241 248.02783203 C212.30605582 197.40592795 194.91652948 150.04509456 161.5625 111.4375 C160.85867188 110.6228125 160.15484375 109.808125 159.4296875 108.96875 C149.34251718 97.54385458 138.76485587 87.53693251 126.5625 78.4375 C126.00336914 78.01227051 125.44423828 77.58704102 124.86816406 77.14892578 C115.31049756 69.89279893 105.20692424 63.95889171 94.5625 58.4375 C93.81371582 58.04675293 93.06493164 57.65600586 92.29345703 57.25341797 C64.91165844 43.14513126 34.48167626 35.34428413 3.75 33.9375 C-15.13560669 33.05448798 -15.13560669 33.05448798 -21.4375 26.4375 C-24.51907591 21.54948303 -24.03469518 16.00634508 -23.4375 10.4375 C-18.48109222 -0.23783983 -10.55921972 -0.19015761 0 0 Z " fill="#FF002A" transform="translate(263.4375,-0.4375)"/>
<path d="M0 0 C1.71799805 0.01703979 1.71799805 0.01703979 3.47070312 0.03442383 C15.25604466 0.29601435 26.62400212 1.99095771 38.125 4.5 C38.91777344 4.67128418 39.71054687 4.84256836 40.52734375 5.01904297 C89.80244306 16.13155995 131.84555618 49.38903015 158.6640625 91.43359375 C165.37726494 102.26384701 170.48356362 113.65091358 175.125 125.5 C175.38651855 126.16177246 175.64803711 126.82354492 175.91748047 127.50537109 C183.02033709 145.8663294 186.27210175 166.01979464 186.4375 185.625 C186.46650391 186.77871094 186.49550781 187.93242187 186.52539062 189.12109375 C186.57368459 195.56276527 186.54640164 199.6501993 182.125 204.5 C178.30569828 208.12833663 175.24220994 208.81000458 170.125 209 C165.00779006 208.81000458 161.94430172 208.12833663 158.125 204.5 C154.84521956 200.2300756 153.6005156 197.26509857 153.25390625 191.90625 C153.10949097 190.00613159 153.10949097 190.00613159 152.9621582 188.06762695 C152.91805817 187.40397125 152.87395813 186.74031555 152.82852173 186.05654907 C149.87059431 142.92048098 132.42269185 102.7734269 99.95727539 73.54223633 C73.36507314 50.48494918 39.0596143 35.63481612 3.75 34.0625 C-13.4090091 33.12369799 -13.4090091 33.12369799 -19.875 26.5 C-22.96245377 21.61948888 -22.47162038 16.06348504 -21.875 10.5 C-17.22830251 0.49172848 -9.98696354 -0.16806398 0 0 Z " fill="#FF002A" transform="translate(261.875,63.5)"/>
<path d="M0 0 C1.44947021 0.01812744 1.44947021 0.01812744 2.92822266 0.03662109 C35.11700598 0.9028989 63.97292664 15.42411976 86.875 37.5 C87.59300781 38.15484375 88.31101562 38.8096875 89.05078125 39.484375 C95.34036293 45.38322115 100.10969978 52.36116307 104.875 59.5 C105.50535156 60.43457031 106.13570313 61.36914062 106.78515625 62.33203125 C118.38038842 80.7945991 124.07278993 102.71841017 124.375 124.375 C124.39369141 125.29659912 124.41238281 126.21819824 124.43164062 127.16772461 C124.37759225 132.78096055 123.62450849 136.06124362 119.875 140.5 C116.05569828 144.12833663 112.99220994 144.81000458 107.875 145 C102.75779006 144.81000458 99.69430172 144.12833663 95.875 140.5 C91.19318106 135.03935295 91.02784617 129.68776825 90.4375 122.6875 C88.11436579 100.43939308 81.33627782 81.17129086 65.875 64.5 C65.14410156 63.70078125 64.41320312 62.9015625 63.66015625 62.078125 C45.93033774 43.506997 23.40489632 35.76761767 -1.57177734 33.6628418 C-9.23058953 32.94116694 -13.12920607 31.65346729 -18.5 26 C-20.89803575 20.83499991 -20.87881535 16.0997712 -20.125 10.5 C-15.93249771 1.46999507 -9.15799917 -0.18421723 0 0 Z " fill="#FF002A" transform="translate(260.125,127.5)"/>
</svg>
